<?xml version="1.0" encoding="utf-8"?>
<!-- Generated by IcoMoon.io -->
<svg version="1.1" xmlns="http://www.w3.org/2000/svg" xmlns:xlink="http://www.w3.org/1999/xlink" width="21" height="1549" viewBox="0 0 21 1549">
<svg id="icon-source-code" width="16" height="16" viewBox="0 0 16 16" x="0" y="0">
<path fill="#8a8a8a" d="M14.4 16h-12.8c-0.884 0-1.6-0.716-1.6-1.6v-12.8c0-0.884 0.716-1.6 1.6-1.6h12.8c0.884 0 1.6 0.716 1.6 1.6v12.8c0 0.884-0.716 1.6-1.6 1.6zM14.4 2.4h-12.8v12h12.8v-12zM6.4 5.6l-2.4 3.2 2.4 2.4-0.8 0.8-3.2-3.2 3.2-4 0.8 0.8zM9.6 4l-1.6 8.8h-1.6l1.6-8.8h1.6zM10.4 4.8l3.2 4-3.2 3.2-0.8-0.8 2.4-2.4-2.4-3.2 0.8-0.8z"></path>
</svg>
<svg id="icon-undo" width="16" height="16" viewBox="0 0 16 16" x="0" y="21">
<path fill="#8a8a8a" d="M12.161 16c1.777-3.219 2.076-8.13-4.904-7.966v3.966l-6-6 6-6v3.881c8.359-0.218 9.29 7.378 4.904 12.119z"></path>
</svg>
<svg id="icon-redo" width="16" height="16" viewBox="0 0 16 16" x="0" y="42">
<path fill="#8a8a8a" d="M9 3.881v-3.881l6 6-6 6v-3.966c-6.981-0.164-6.681 4.747-4.904 7.966-4.386-4.741-3.454-12.337 4.904-12.119z"></path>
</svg>
<svg id="icon-preview" width="16" height="16" viewBox="0 0 16 16" x="0" y="63">
<path fill="#8a8a8a" d="M11.566 10.552c1.261-1.733 1.095-4.134-0.425-5.645-0.827-0.827-1.922-1.275-3.089-1.275-1.166 0-2.261 0.456-3.089 1.275-0.811 0.827-1.269 1.922-1.269 3.086s0.456 2.259 1.277 3.086c0.827 0.827 1.922 1.275 3.089 1.275 0.922 0 1.805-0.291 2.561-0.85l2.269 2.259c0.127 0.127 0.292 0.197 0.473 0.197s0.347-0.070 0.473-0.197c0.259-0.259 0.259-0.684 0-0.945l-2.27-2.266zM5.916 10.134c-1.181-1.181-1.181-3.094 0-4.275 0.575-0.575 1.331-0.881 2.142-0.881s1.567 0.316 2.142 0.881c1.181 1.181 1.181 3.094 0 4.275-1.141 1.133-3.142 1.133-4.284 0z"></path>
<path fill="#8a8a8a" d="M11.431 1h-6.855c-1.969 0-3.577 1.598-3.577 3.575v6.85c0 1.969 1.6 3.575 3.577 3.575h3.719c0.37 0 0.67-0.298 0.67-0.669s-0.3-0.669-0.67-0.669h-3.719c-1.23 0-2.23-1-2.23-2.228v-6.852c0-1.228 1-2.228 2.23-2.228h6.855c1.23 0 2.23 1 2.23 2.228v3.645c0 0.37 0.3 0.669 0.67 0.669s0.67-0.298 0.67-0.669v-3.661c-0.002-1.969-1.602-3.567-3.57-3.567z"></path>
</svg>
<svg id="icon-print" width="16" height="16" viewBox="0 0 16 16" x="0" y="84">
<path fill="#8a8a8a" d="M4.98 14.938h5.967c0.548 0 0.975-0.461 0.975-1.011v-2.973h-7.922v2.973c0 0.55 0.431 1.011 0.98 1.011zM10.947 1.016h-5.967c-0.548 0-0.98 0.428-0.98 0.978v2.959h7.922v-2.959c0-0.55-0.427-0.978-0.975-0.978z"></path>
<path fill="#8a8a8a" d="M12.922 4.953v1.016h-9.922v-1.016h-1.003c-0.55 0-0.981 0.469-0.981 1.019v6.961c0 0.55 0.431 1.005 0.981 1.005h1.003v-3.984h9.922v3.984h1.008c0.548 0 1.008-0.455 1.008-1.005v-6.961c0-0.55-0.458-1.019-1.008-1.019h-1.008zM12.922 7.984h-2.969v-1.016h2.969v1.016z"></path>
</svg>
<svg id="icon-template" width="16" height="16" viewBox="0 0 16 16" x="0" y="105">
<path fill="#8a8a8a" d="M8.824 4.504h-8.504v8.536h8.504v-8.536zM6.632 10.84h-0.68v-3.056l-1.056 3.056h-0.608l-1.048-3.104v3.104h-0.68v-4.28h0.952l0.992 2.976c0.048 0.144 0.088 0.264 0.12 0.376 0.040-0.12 0.088-0.264 0.144-0.424l1-2.92h0.872v4.272zM14.88 2.84l-2.024-2.032c-0.44-0.44-1.312-0.808-1.936-0.808h-6.8c-0.624 0-1.136 0.512-1.136 1.136v2.296h0.904v-2.296c0-0.12 0.104-0.224 0.224-0.224h6.8c0.064 0 0.144 0.008 0.224 0.024v3.616h3.6c0.016 0.080 0.024 0.528 0.024 0.6v9.712c0 0.12-0.104 0.224-0.224 0.224h-10.432c-0.12 0-0.224-0.104-0.224-0.224v-0.76h-0.904v0.76c0 0.624 0.512 1.136 1.136 1.136h10.432c0.624 0 1.136-0.512 1.136-1.136v-9.712c0-0.624-0.36-1.872-0.8-2.312zM12.056 3.64v-2.328c0.064 0.040 0.112 0.088 0.16 0.136l2.024 2.032c0.048 0.048 0.088 0.096 0.136 0.16h-2.32zM9.864 9.6h3.72v-1.064h-3.72v1.064zM9.864 11.736h3.72v-1.064h-3.72v1.064zM13.584 6.4h-3.72v1.064h3.72v-1.064z"></path>
</svg>
<svg id="icon-code" width="16" height="16" viewBox="0 0 16 16" x="0" y="126">
<path fill="#8a8a8a" d="M5.015 3.754l-0.708-0.585c-0.215-0.154-0.462-0.123-0.646 0.062l-3.569 4.492c-0.123 0.154-0.123 0.4 0 0.585l3.6 4.462c0.154 0.185 0.431 0.246 0.646 0.062l0.708-0.585c0.215-0.154 0.246-0.462 0.062-0.646l-2.892-3.6 2.923-3.6c0.123-0.185 0.092-0.462-0.123-0.646zM15.908 7.723l-3.6-4.462c-0.154-0.185-0.431-0.246-0.646-0.062l-0.708 0.585c-0.215 0.154-0.246 0.462-0.062 0.646l2.923 3.6-2.923 3.6c-0.154 0.185-0.123 0.492 0.062 0.646l0.708 0.585c0.215 0.154 0.462 0.123 0.646-0.062l3.6-4.492c0.123-0.215 0.123-0.431 0-0.585zM9.723 3.323l-0.923-0.215c-0.246-0.062-0.523 0.092-0.585 0.338l-2.277 8.738c-0.062 0.246 0.092 0.492 0.338 0.554l0.923 0.215c0.246 0.062 0.523-0.092 0.585-0.338l2.277-8.738c0.062-0.277-0.092-0.492-0.338-0.554z"></path>
</svg>
<svg id="icon-crop" width="16" height="16" viewBox="0 0 16 16" x="0" y="147">
<path fill="#8a8a8a" d="M13.585 0.288c1.548 1.972 0.581 3.752 0.581 3.752l-6.049 7.649s-4.161-4.761-5.855-7.12c-1.693-2.356 0.099-4.569 0.099-4.569l5.757 7.312 5.467-7.023zM8.074 10.223c0.469 0 0.846-0.378 0.846-0.842 0-0.224-0.090-0.439-0.249-0.597s-0.374-0.246-0.598-0.246c-0.467 0-0.848 0.377-0.848 0.842s0.381 0.842 0.848 0.842zM11.641 10.395c0.746-0.002 1.462 0.292 1.989 0.818s0.827 1.24 0.829 1.985c-0.002 0.746-0.3 1.459-0.829 1.985s-1.244 0.819-1.989 0.817c-0.746 0.003-1.462-0.292-1.99-0.816s-0.827-1.24-0.829-1.986c0.002-0.746 0.3-1.46 0.829-1.986s1.244-0.819 1.99-0.817zM11.641 14.607c0.783 0 1.419-0.63 1.419-1.409s-0.637-1.411-1.419-1.411c-0.784 0-1.419 0.631-1.419 1.411s0.635 1.41 1.419 1.41v-0.001zM4.575 10.395c0.746-0.002 1.461 0.292 1.989 0.818s0.826 1.24 0.829 1.985c-0.005 1.552-1.266 2.807-2.818 2.802-0.746 0.003-1.462-0.292-1.99-0.816s-0.827-1.24-0.829-1.986c0.002-0.746 0.299-1.46 0.829-1.986s1.244-0.819 1.99-0.817zM4.575 14.607c0.783 0 1.419-0.63 1.419-1.409s-0.637-1.411-1.419-1.411c-0.784 0-1.419 0.631-1.419 1.411s0.635 1.41 1.419 1.41v-0.001z"></path>
</svg>
<svg id="icon-copy" width="16" height="16" viewBox="0 0 16 16" x="0" y="168">
<path fill="#8a8a8a" d="M3 10h7v1h-7v-1z"></path>
<path fill="#8a8a8a" d="M3 8h7v1h-7v-1z"></path>
<path fill="#8a8a8a" d="M3 12h4v1h-4v-1z"></path>
<path fill="#8a8a8a" d="M14 0h-9c-1.1 0-2 0.9-2 2h1c0-0.6 0.4-1 1-1h9c0.6 0 1 0.4 1 1v9c0 0.6-0.4 1-1 1v1c1.1 0 2-0.9 2-2v-9c0-1.1-0.9-2-2-2z"></path>
<path fill="#8a8a8a" d="M3 6h7v1h-7v-1z"></path>
<path fill="#8a8a8a" d="M11 3h-9c-1.1 0-2 0.9-2 2v9c0 1.1 0.9 2 2 2h9c1.1 0 2-0.9 2-2v-9c0-1.1-0.9-2-2-2zM12 14c0 0.6-0.4 1-1 1h-9c-0.6 0-1-0.4-1-1v-9c0-0.6 0.4-1 1-1h9c0.6 0 1 0.4 1 1v9z"></path>
</svg>
<svg id="icon-paste" width="16" height="16" viewBox="0 0 16 16" x="0" y="189">
<path fill="#8a8a8a" d="M13.644 7h-5.288c-1.298 0-2.356 1.056-2.356 2.356v4.288c0 1.298 1.056 2.356 2.356 2.356h5.289c1.298 0 2.356-1.056 2.356-2.356v-4.289c-0.002-1.298-1.058-2.355-2.358-2.355zM15 13.644c0 0.747-0.608 1.356-1.356 1.356h-5.288c-0.747 0-1.356-0.608-1.356-1.356v-4.289c0-0.747 0.608-1.356 1.356-1.356h5.289c0.747 0 1.356 0.608 1.356 1.356v4.289h-0.002z"></path>
<path fill="#8a8a8a" d="M4.453 13h-2.434c-0.561 0-1.019-0.456-1.019-1.019v-9.963c0-0.561 0.456-1.019 1.019-1.019h8.962c0.561 0 1.019 0.456 1.019 1.019v3.497c0 0.277 0.223 0.5 0.5 0.5s0.5-0.223 0.5-0.5v-3.497c0-1.112-0.906-2.019-2.019-2.019h-8.963c-1.112 0-2.019 0.905-2.019 2.019v9.962c0 1.113 0.906 2.019 2.019 2.019h2.434c0.277 0 0.5-0.223 0.5-0.5s-0.223-0.5-0.5-0.5z"></path>
<path fill="#8a8a8a" d="M10.5 3h-8c-0.277 0-0.5 0.223-0.5 0.5s0.223 0.5 0.5 0.5h8c0.277 0 0.5-0.223 0.5-0.5s-0.223-0.5-0.5-0.5zM5.5 6h-3c-0.277 0-0.5 0.223-0.5 0.5s0.223 0.5 0.5 0.5h3c0.277 0 0.5-0.223 0.5-0.5s-0.223-0.5-0.5-0.5zM4.5 9h-2c-0.277 0-0.5 0.223-0.5 0.5s0.223 0.5 0.5 0.5h2c0.277 0 0.5-0.223 0.5-0.5s-0.223-0.5-0.5-0.5z"></path>
</svg>
<svg id="icon-paste-text" width="16" height="16" viewBox="0 0 16 16" x="0" y="210">
<path fill="#8a8a8a" d="M10.5 2h-2v-1c0-0.551-0.45-1-1-1h-2c-0.549 0-1 0.45-1 1v1h-2v2.278h7.999v-2.278zM7.5 2h-2v-0.998c0.001 0 0.001-0.001 0.002-0.001h1.996c0.001 0 0.001 0.001 0.002 0.001l-0.001 0.998zM8.17 9.529h1.972v3.834h1.005v-3.834h1.967v-1.005h-4.943z"></path>
<path fill="#8a8a8a" d="M12.499 5.882v-3.382c0-0.275-0.225-0.5-0.499-0.5h-1v0.816h-0.012v1.928h-8.992v-1.743h0.004v-1h-1c-0.275 0-0.5 0.225-0.5 0.5v11.651c0 0.275 0.225 0.5 0.5 0.5h4.772v1.347l9.727 0.001v-10.118h-3zM6.773 14.999v-8.118h7.726l0.003 8.117-7.729 0.001z"></path>
</svg>
<svg id="icon-paste-word" width="16" height="16" viewBox="0 0 16 16" x="0" y="231">
<path fill="#8a8a8a" d="M13.628 8.819v0.146c-0.195 0.017-0.34 0.154-0.437 0.413l-1.238 3.691h-0.17l-1.044-2.865h-0.024l-1.141 2.865h-0.17l-1.311-3.691c-0.081-0.259-0.227-0.396-0.437-0.413v-0.146h1.821v0.146c-0.275 0.017-0.405 0.105-0.389 0.267 0 0.081 0.016 0.154 0.049 0.219l0.59 1.788 0.718-1.799-0.046-0.257c-0.097-0.13-0.251-0.202-0.461-0.219v-0.146h1.942v0.146c-0.032 0.017-0.057 0.024-0.073 0.024-0.276 0-0.397 0.073-0.364 0.219 0 0.033 0.008 0.105 0.025 0.219 0.016 0.065 0.032 0.105 0.048 0.121l0.572 1.679 0.534-1.806c0.016-0.032 0.084-0.421-0.062-0.432-0.017-0.001-0.033-0.008-0.049-0.024v-0.146h1.117zM10.5 2h-2v-1c0-0.55-0.45-1-1-1h-2c-0.55 0-1 0.45-1 1v1h-2v2.278h8v-2.278zM7.5 2h-2v-0.998l0.002-0.002h1.997c0 0.001 0.002 0.001 0.002 0.002l-0 0.998zM12.499 5.882v-3.382c0-0.275-0.225-0.5-0.499-0.5h-1v0.815h-0.011v1.928h-8.992v-1.744h0.004v-1h-1c-0.275 0-0.5 0.225-0.5 0.5v11.652c0 0.275 0.225 0.5 0.5 0.5h4.773v1.348l9.727 0.001v-10.118h-3zM6.773 14.999v-8.117h7.727l0.003 8.117h-7.729z"></path>
</svg>
<svg id="icon-left-align" width="16" height="16" viewBox="0 0 16 16" x="0" y="252">
<path fill="#8a8a8a" d="M1.148 0h13.704c0.624 0 1.123 0.499 1.123 1.148 0 0.624-0.499 1.148-1.148 1.148h-13.679c-0.649-0.025-1.148-0.524-1.148-1.148 0-0.649 0.499-1.148 1.148-1.148zM1.148 4.568h9.136c0.624 0 1.148 0.499 1.148 1.148 0 0.624-0.499 1.148-1.148 1.148h-9.136c-0.624 0-1.148-0.499-1.148-1.148s0.499-1.148 1.148-1.148zM1.148 9.136h13.704c0.624 0 1.148 0.499 1.148 1.148 0 0.624-0.499 1.148-1.148 1.148h-13.704c-0.624 0-1.148-0.499-1.148-1.148s0.499-1.148 1.148-1.148zM1.148 13.704h9.136c0.624 0 1.148 0.499 1.148 1.148 0 0.624-0.499 1.148-1.148 1.148h-9.136c-0.649-0.025-1.148-0.524-1.148-1.173 0-0.624 0.499-1.123 1.148-1.123z"></path>
</svg>
<svg id="icon-center-align" width="16" height="16" viewBox="0 0 16 16" x="0" y="273">
<path fill="#8a8a8a" d="M1.953 3.11q-0.407 0-0.688-0.289t-0.281-0.696 0.281-0.688 0.688-0.281h11.719q0.406 0 0.688 0.281t0.281 0.688-0.281 0.696-0.688 0.289h-11.719zM11.719 5.063q0.406 0 0.688 0.282t0.281 0.688-0.281 0.696-0.688 0.289h-7.813q-0.406 0-0.688-0.289t-0.281-0.696 0.281-0.688 0.688-0.282h7.813zM13.672 8.953q0.406 0 0.688 0.289t0.281 0.696-0.281 0.688-0.688 0.281h-11.719q-0.406 0-0.688-0.281t-0.281-0.688 0.281-0.695 0.688-0.289h11.719zM11.719 12.86q0.406 0 0.688 0.289t0.281 0.696-0.281 0.688-0.688 0.281h-7.813q-0.406 0-0.688-0.281t-0.281-0.688 0.281-0.695 0.688-0.289h7.813z"></path>
</svg>
<svg id="icon-right-align" width="16" height="16" viewBox="0 0 16 16" x="0" y="294">
<path fill="#8a8a8a" d="M3.497 10.966c-0.249-0.002-0.529-0.062-0.737-0.19-0.382-0.234-0.488-0.667-0.349-1.095 0.142-0.437 0.484-0.671 1.071-0.672 3.574-0.006 7.149-0.006 10.723 0.005 0.236 0.001 0.5 0.070 0.701 0.19 0.374 0.222 0.5 0.672 0.371 1.090-0.132 0.428-0.468 0.674-0.974 0.676-1.822 0.006-3.643 0.002-5.465 0.002-1.78 0-3.561 0.008-5.341-0.008zM14.228 1.013c0.554 0.001 0.91 0.244 1.051 0.696 0.21 0.674-0.27 1.276-1.037 1.278-2.374 0.006-4.749 0.002-7.123 0.002-1.228 0-4.137 0.003-5.366-0.002-0.507-0.002-0.86-0.232-1.012-0.637-0.256-0.68 0.222-1.333 0.999-1.336 1.808-0.008 5.297-0.003 7.105-0.003 1.795-0 3.589-0.002 5.383 0.001zM9.344 6.983c-1.63 0-3.26 0.004-4.89-0.002-0.662-0.002-1.097-0.402-1.095-0.98 0.001-0.58 0.436-0.993 1.093-0.994 3.26-0.006 6.52-0.008 9.78 0.007 0.245 0.001 0.521 0.098 0.727 0.235 0.35 0.232 0.448 0.677 0.309 1.074-0.144 0.412-0.47 0.654-0.951 0.656-1.658 0.007-3.315 0.003-4.973 0.003v0.002zM14.279 13.022c0.627 0.003 1.053 0.418 1.049 0.983-0.004 0.563-0.437 0.98-1.058 0.981-3.287 0.005-5.935 0.007-9.222-0.008-0.231-0.001-0.492-0.098-0.685-0.23-0.343-0.234-0.441-0.681-0.305-1.078 0.137-0.4 0.477-0.646 0.958-0.648 1.657-0.007 2.675-0.003 4.332-0.003 1.644-0 3.287-0.006 4.931 0.002z"></path>
</svg>
<svg id="icon-both-align" width="16" height="16" viewBox="0 0 16 16" x="0" y="315">
<path fill="#8a8a8a" d="M14.148 1.013c0.554 0.001 0.91 0.244 1.051 0.696 0.21 0.674-0.27 1.276-1.037 1.278-2.374 0.006-4.749 0.002-7.123 0.002-1.228 0-4.137 0.003-5.366-0.002-0.507-0.002-0.86-0.232-1.012-0.637-0.256-0.68 0.222-1.333 0.999-1.336 1.808-0.008 5.297-0.003 7.105-0.003 1.794-0 3.589-0.002 5.383 0.001zM14.148 13.040c0.554 0.001 0.91 0.244 1.051 0.696 0.21 0.674-0.27 1.276-1.037 1.278-2.374 0.006-4.749 0.002-7.123 0.002-1.228 0-4.137 0.003-5.366-0.002-0.507-0.002-0.86-0.232-1.012-0.637-0.256-0.68 0.222-1.333 0.999-1.336 1.808-0.008 5.297-0.003 7.105-0.003 1.794-0 3.589-0.002 5.383 0.001zM14.148 8.96c0.554 0.001 0.91 0.244 1.051 0.696 0.21 0.674-0.27 1.276-1.037 1.278-2.374 0.006-4.749 0.002-7.123 0.002-1.228 0-4.137 0.003-5.366-0.002-0.507-0.002-0.86-0.232-1.012-0.637-0.256-0.68 0.222-1.333 0.999-1.337 1.808-0.008 5.297-0.002 7.105-0.002 1.794-0 3.589-0.002 5.383 0.001zM14.148 4.96c0.554 0.001 0.91 0.244 1.051 0.696 0.21 0.674-0.27 1.276-1.037 1.278-2.374 0.006-4.749 0.002-7.123 0.002-1.228 0-4.137 0.003-5.366-0.002-0.507-0.002-0.86-0.232-1.012-0.637-0.256-0.68 0.222-1.333 0.999-1.337 1.808-0.008 5.297-0.003 7.105-0.003 1.794-0 3.589-0.002 5.383 0.001z"></path>
</svg>
<svg id="icon-ol" width="16" height="16" viewBox="0 0 16 16" x="0" y="336">
<path fill="#8a8a8a" d="M7.111 1.778h8c0.533 0 0.889-0.356 0.889-0.889s-0.356-0.889-0.889-0.889h-8c-0.533 0-0.889 0.356-0.889 0.889s0.356 0.889 0.889 0.889z"></path>
<path fill="#8a8a8a" d="M15.111 4.711h-8c-0.533 0-0.889 0.356-0.889 0.889s0.356 0.889 0.889 0.889h8c0.533 0 0.889-0.356 0.889-0.889s-0.356-0.889-0.889-0.889z"></path>
<path fill="#8a8a8a" d="M15.111 9.511h-8c-0.533 0-0.889 0.356-0.889 0.889s0.356 0.889 0.889 0.889h8c0.533 0 0.889-0.356 0.889-0.889s-0.356-0.889-0.889-0.889z"></path>
<path fill="#8a8a8a" d="M15.111 14.222h-8c-0.533 0-0.889 0.356-0.889 0.889s0.356 0.889 0.889 0.889h8c0.533 0 0.889-0.356 0.889-0.889s-0.356-0.889-0.889-0.889z"></path>
<path fill="#8a8a8a" d="M2.578 0.533h-0.8l-1.689 0.889 0.267 0.889 1.244-0.711v3.733h-1.333v0.889h3.556v-0.889h-1.244z"></path>
<path fill="#8a8a8a" d="M2.222 13.956c0.178-0.178 0.444-0.444 0.622-0.622s0.356-0.356 0.444-0.533c0.089-0.178 0.178-0.356 0.267-0.533s0.089-0.356 0.089-0.622c0-0.267-0.089-0.622-0.178-0.8-0.089-0.267-0.267-0.356-0.356-0.533s-0.444-0.267-0.622-0.356c-0.178-0.089-0.444-0.089-0.711-0.089-0.356 0-0.711 0.089-0.978 0.178-0.267 0.178-0.622 0.356-0.8 0.622l0.444 0.622c0.178-0.178 0.356-0.267 0.533-0.444s0.444-0.178 0.622-0.178c0.178 0 0.356 0 0.444 0s0.267 0.089 0.267 0.267 0.178 0.178 0.178 0.356 0.089 0.267 0.089 0.356c0 0.178 0 0.267 0 0.444s-0.089 0.267-0.178 0.356-0.178 0.267-0.356 0.444-0.356 0.444-0.533 0.711l-1.511 1.244v0.889h3.733v-0.889h-2.4l0.889-0.889z"></path>
</svg>
<svg id="icon-ul" width="16" height="16" viewBox="0 0 16 16" x="0" y="357">
<path fill="#8a8a8a" d="M15.111 13.333h-8.889c-0.533 0-0.889 0.356-0.889 0.889s0.356 0.889 0.889 0.889h8.889c0.533 0 0.889-0.356 0.889-0.889 0-0.444-0.444-0.889-0.889-0.889z"></path>
<path fill="#8a8a8a" d="M6.222 2.667h8.889c0.533 0 0.889-0.356 0.889-0.889s-0.356-0.889-0.889-0.889h-8.889c-0.533 0-0.889 0.444-0.889 0.889 0 0.533 0.356 0.889 0.889 0.889z"></path>
<path fill="#8a8a8a" d="M15.111 7.111h-8.889c-0.533 0-0.889 0.444-0.889 0.889 0 0.533 0.356 0.889 0.889 0.889h8.889c0.533 0 0.889-0.356 0.889-0.889 0-0.444-0.444-0.889-0.889-0.889z"></path>
<path fill="#8a8a8a" d="M0 1.778c0 0.982 0.796 1.778 1.778 1.778s1.778-0.796 1.778-1.778v0c0-0.982-0.796-1.778-1.778-1.778s-1.778 0.796-1.778 1.778v0z"></path>
<path fill="#8a8a8a" d="M0 8c0 0.982 0.796 1.778 1.778 1.778s1.778-0.796 1.778-1.778v0c0-0.982-0.796-1.778-1.778-1.778s-1.778 0.796-1.778 1.778v0z"></path>
<path fill="#8a8a8a" d="M0 14.222c0 0.982 0.796 1.778 1.778 1.778s1.778-0.796 1.778-1.778v0c0-0.982-0.796-1.778-1.778-1.778s-1.778 0.796-1.778 1.778v0z"></path>
</svg>
<svg id="icon-right-indent" width="17" height="16" viewBox="0 0 17 16" x="0" y="378">
<path fill="#8a8a8a" d="M0 1.882h17.488v-1.882h-17.488zM7.511 5.412h9.977v-1.883h-9.977zM7.511 8.941h9.977v-1.883h-9.977zM7.511 12.471h9.977v-1.883h-9.977zM0 16h17.488v-1.882h-17.488zM0 11.572v-6.627l4.418 3.314z"></path>
</svg>
<svg id="icon-left-indent" width="17" height="16" viewBox="0 0 17 16" x="0" y="399">
<path fill="#8a8a8a" d="M0 1.883h17.488v-1.883h-17.488v1.883zM7.511 5.412h9.977v-1.883h-9.977v1.883zM7.511 8.941h9.977v-1.883h-9.977v1.883zM7.511 12.471h9.977v-1.883h-9.977v1.883zM0 16h17.488v-1.883h-17.488v1.883zM4.418 11.572v-6.627l-4.418 3.314 4.418 3.313z"></path>
</svg>
<svg id="icon-down-tag" width="16" height="16" viewBox="0 0 16 16" x="0" y="420">
<path fill="#8a8a8a" d="M13.331 13.511v1.089h2.669v1.4h-4.001v-3.189l2.664-1.309v-1.089h-2.664v-1.394h4.001v3.183l-2.669 1.309zM9.397 0.762l-3.448 5.204-3.454-5.204h-2.495l4.696 7.083-4.696 7.083h2.495l3.454-5.204 3.448 5.204h2.495l-4.696-7.083 4.696-7.083z"></path>
</svg>
<svg id="icon-up-tag" width="16" height="16" viewBox="0 0 16 16" x="0" y="441">
<path fill="#8a8a8a" d="M13.331 4.492v1.095h2.669v1.394h-4.001v-3.183l2.664-1.309v-1.095h-2.664v-1.394h4.001v3.183l-2.669 1.309zM9.397 0.762l-3.448 5.204-3.454-5.204h-2.495l4.696 7.083-4.696 7.083h2.495l3.454-5.204 3.448 5.204h2.495l-4.696-7.083 4.696-7.083z"></path>
</svg>
<svg id="icon-clear-format" width="16" height="16" viewBox="0 0 16 16" x="0" y="462">
<path fill="#8a8a8a" d="M11.163 3.197l3.005-1.734 1.43 1.763-2.248 2.491zM8.877 2.251c0.879 0.108 5.156 5.318 5.046 5.904s-2.497 2.206-2.497 2.206l-5.417-6.229c-0 0 1.989-1.988 2.868-1.88zM5.491 4.897l5.23 6.088-3.209 4.173-7.247-9.178s1.436-0.060 2.633-0.374c0.783-0.206 2.593-0.709 2.593-0.709z"></path>
</svg>
<svg id="icon-selectall" width="16" height="16" viewBox="0 0 16 16" x="0" y="483">
<path fill="#8a8a8a" d="M7.272 8.96c-0.216 0-0.416-0.080-0.568-0.232l-3.136-3.144c-0.112-0.112-0.176-0.264-0.176-0.416 0-0.16 0.064-0.304 0.176-0.416s0.264-0.176 0.416-0.176c0.16 0 0.304 0.064 0.416 0.176l2.872 2.872 6.104-6.104c0.112-0.112 0.264-0.176 0.416-0.176 0.16 0 0.304 0.064 0.416 0.176 0.232 0.232 0.232 0.608 0 0.84l-6.368 6.368c-0.152 0.152-0.352 0.232-0.568 0.232z"></path>
<path fill="#8a8a8a" d="M2 12.76c-0.256 0-0.496-0.104-0.68-0.28-0.184-0.184-0.28-0.424-0.28-0.68v-9.776c0-0.256 0.104-0.496 0.28-0.68 0.184-0.184 0.424-0.28 0.68-0.28h6.776c0.328 0 0.592 0.264 0.592 0.592s-0.264 0.592-0.592 0.592h-6.552v9.328h8.92v-4.304c0-0.328 0.272-0.6 0.6-0.6s0.6 0.272 0.6 0.6v4.528c0 0.256-0.104 0.496-0.28 0.68-0.184 0.184-0.424 0.28-0.68 0.28h-9.384z"></path>
<path fill="#8a8a8a" d="M5 15.016c-0.328 0-0.592-0.264-0.592-0.592s0.264-0.592 0.592-0.592l8.808-0.008v-7.68c0-0.328 0.264-0.592 0.592-0.592 0.16 0 0.312 0.064 0.424 0.176s0.176 0.264 0.176 0.424l-0.008 8.008c0 0.472-0.384 0.848-0.856 0.848l-9.136 0.008z"></path>
</svg>
<svg id="icon-paiban" width="16" height="16" viewBox="0 0 16 16" x="0" y="504">
<path fill="#8a8a8a" d="M15.176 12.792l-5.48-4.8c-0.304-0.264-0.76-0.232-1.024 0.072l-1.552 1.776c-0.264 0.304-0.232 0.76 0.064 1.024l2.16 1.888 0.456-0.52 0.64-0.736c0.088-0.096 0.24-0.104 0.344-0.016l0.016 0.016c0.104 0.088 0.112 0.24 0.024 0.344l-0.64 0.736-0.456 0.52 0.776 0.68 0.36-0.416 0.424-0.48c0.088-0.104 0.24-0.112 0.344-0.024l0.016 0.016c0.104 0.088 0.112 0.24 0.024 0.344l-0.424 0.48-0.36 0.416 0.776 0.68 0.456-0.52 0.64-0.736c0.088-0.096 0.24-0.104 0.344-0.016l0.016 0.016c0.104 0.088 0.112 0.24 0.024 0.344l-0.64 0.736-0.456 0.52 0.616 0.544c0.304 0.264 0.76 0.232 1.024-0.072l1.56-1.776c0.264-0.32 0.232-0.776-0.072-1.040zM9.76 9.944c-0.176 0.2-0.488 0.208-0.704 0.024s-0.248-0.496-0.072-0.696c0.176-0.2 0.488-0.208 0.704-0.024s0.248 0.496 0.072 0.696z"></path>
<path fill="#8a8a8a" d="M5.784 10.824h-2.928c-0.304 0-0.552-0.248-0.552-0.552s0.248-0.552 0.552-0.552h3.096l0.944-1.112h-4.040c-0.304 0-0.552-0.248-0.552-0.552s0.248-0.56 0.552-0.56h4.984l0.472-0.56c0.344-0.4 0.952-0.456 1.352-0.112l2.632 2.232v-6.016l-0.072-0.072v-0.008l-2.88-2.88h-7.784c-0.816 0-1.48 0.664-1.48 1.48v10.744c0 0.816 0.664 1.48 1.48 1.48h7.6l-3.144-2.664c-0.096-0.080-0.176-0.184-0.232-0.296zM2.856 3.040h3.704c0.304 0 0.552 0.248 0.552 0.552s-0.248 0.552-0.552 0.552h-3.704c-0.304 0-0.552-0.248-0.552-0.552 0-0.296 0.248-0.552 0.552-0.552zM2.856 5.264h6.664c0.304 0 0.552 0.248 0.552 0.56 0 0.304-0.248 0.552-0.552 0.552h-6.664c-0.304 0-0.552-0.248-0.552-0.552 0-0.312 0.248-0.56 0.552-0.56z"></path>
</svg>
<svg id="icon-full-screen" width="16" height="16" viewBox="0 0 16 16" x="0" y="525">
<path fill="#8a8a8a" d="M14.872 1.258c-0.094-0.094-0.219-0.145-0.352-0.145h-0.002l-4.502 0.017c-0.275 0.002-0.497 0.223-0.497 0.5 0.002 0.273 0.223 0.497 0.498 0.497h0.002l3.175-0.013-3.423 3.45c-0.194 0.194-0.192 0.511 0.003 0.705 0.097 0.097 0.223 0.145 0.35 0.145 0.128 0 0.256-0.050 0.353-0.148l3.545-3.572v3.22c0 0.275 0.222 0.498 0.498 0.498 0.275 0 0.498-0.222 0.498-0.498v-4.303c-0.002-0.133-0.055-0.259-0.148-0.353zM1.239 1.238c0.094-0.094 0.219-0.145 0.352-0.145h0.002l4.502 0.019c0.275 0.002 0.497 0.225 0.497 0.5-0.002 0.273-0.223 0.497-0.498 0.497h-0.002l-3.177-0.014 3.425 3.45c0.194 0.194 0.192 0.511-0.003 0.705-0.097 0.097-0.223 0.145-0.35 0.145-0.128 0-0.256-0.050-0.353-0.148l-3.545-3.572v3.22c0 0.275-0.222 0.498-0.498 0.498s-0.498-0.222-0.498-0.498v-4.303c0.002-0.131 0.055-0.259 0.148-0.353zM14.872 14.881c-0.094 0.094-0.219 0.145-0.352 0.145h-0.002l-4.502-0.017c-0.275-0.002-0.497-0.225-0.497-0.5 0.002-0.273 0.223-0.497 0.498-0.497h0.002l3.175 0.012-3.423-3.448c-0.194-0.194-0.192-0.511 0.003-0.705 0.097-0.097 0.223-0.145 0.35-0.145 0.128 0 0.256 0.050 0.353 0.148l3.545 3.57v-3.22c0-0.275 0.222-0.498 0.498-0.498 0.275 0 0.498 0.222 0.498 0.498v4.303c-0.002 0.133-0.055 0.259-0.148 0.353zM1.223 14.886c0.094 0.094 0.219 0.145 0.352 0.145h0.002l4.502-0.017c0.275-0.002 0.497-0.225 0.497-0.5-0.002-0.273-0.223-0.497-0.498-0.497h-0.002l-3.175 0.012 3.425-3.45c0.194-0.194 0.192-0.511-0.003-0.705-0.097-0.097-0.223-0.145-0.35-0.145-0.128 0-0.256 0.050-0.353 0.148l-3.547 3.572v-3.22c0-0.275-0.222-0.498-0.498-0.498s-0.498 0.222-0.498 0.498v4.303c0.002 0.133 0.055 0.259 0.148 0.353z"></path>
</svg>
<svg id="icon-title" width="16" height="16" viewBox="0 0 16 16" x="0" y="546">
<path fill="#8a8a8a" d="M1.815 2.089v4.803h1.332v-4.803h1.815v-1.089h-4.962v1.089h1.815zM6.443 1.966v-0.966h-1.205v0.966h1.205zM5.239 2.626v4.267h1.205v-4.267h-1.205zM8.594 2.626v-1.279h-1.205v1.279h-0.73v0.784h0.73v2.517c0 0.215 0.037 0.388 0.11 0.52s0.174 0.234 0.301 0.305c0.127 0.072 0.274 0.12 0.441 0.144s0.344 0.037 0.53 0.037c0.119 0 0.24-0.003 0.365-0.008s0.238-0.016 0.339-0.033v-0.908c-0.057 0.011-0.116 0.019-0.178 0.025s-0.127 0.008-0.195 0.008c-0.204 0-0.339-0.033-0.407-0.099s-0.102-0.198-0.102-0.396v-2.113h0.882v-0.784h-0.882zM9.761 1v5.893h1.205v-5.893h-1.205zM14.541 4.301h-1.96c0.006-0.083 0.024-0.176 0.055-0.281s0.085-0.204 0.161-0.297c0.076-0.094 0.178-0.172 0.305-0.235s0.287-0.095 0.479-0.095c0.294 0 0.513 0.077 0.657 0.231s0.245 0.38 0.301 0.677v0zM12.581 5.044h3.164c0.023-0.33-0.006-0.646-0.085-0.949s-0.208-0.572-0.386-0.809c-0.178-0.237-0.406-0.425-0.683-0.565s-0.602-0.21-0.976-0.21c-0.334 0-0.638 0.058-0.912 0.173s-0.51 0.274-0.708 0.475c-0.198 0.201-0.351 0.439-0.458 0.714s-0.161 0.572-0.161 0.891c0 0.33 0.052 0.633 0.157 0.908s0.253 0.512 0.445 0.71c0.192 0.198 0.427 0.351 0.704 0.458s0.588 0.161 0.933 0.161c0.498 0 0.922-0.11 1.272-0.33s0.611-0.586 0.78-1.098h-1.060c-0.040 0.132-0.147 0.257-0.322 0.376s-0.385 0.177-0.628 0.177c-0.339 0-0.599-0.085-0.78-0.256s-0.28-0.446-0.297-0.825zM0 9h16v1h-16v-1zM0 12h16v1h-16v-1zM0 15h12v1h-12v-1z"></path>
</svg>
<svg id="icon-font" width="16" height="16" viewBox="0 0 16 16" x="0" y="567">
<path fill="#8a8a8a" d="M0.32 1.436v3.661h0.448c0.149-0.971 0.523-1.793 1.195-2.316 0.374-0.374 1.046-0.598 2.017-0.598h1.046v10.386c0 0.672-0.075 1.121-0.149 1.27-0.075 0.224-0.224 0.374-0.448 0.448-0.224 0.149-0.598 0.224-0.971 0.224h-0.448v0.374h7.472v-0.374h-0.448c-0.448 0-0.747-0.075-0.971-0.224s-0.374-0.299-0.448-0.448-0.149-0.598-0.149-1.27v-10.386h1.046c0.672 0 1.121 0.075 1.42 0.149 0.448 0.224 0.822 0.523 1.121 0.897s0.523 0.971 0.747 1.793h0.374v-3.586h-12.851z"></path>
<path fill="#8a8a8a" d="M8.533 6.286v2.341h0.254c0.085-0.621 0.296-1.146 0.676-1.481 0.211-0.239 0.592-0.382 1.141-0.382h0.592v6.64c0 0.43-0.042 0.716-0.085 0.812-0.042 0.143-0.127 0.239-0.254 0.287-0.127 0.095-0.338 0.143-0.549 0.143h-0.254v0.239h4.225v-0.239h-0.253c-0.254 0-0.423-0.048-0.549-0.143s-0.211-0.191-0.254-0.287c-0.042-0.095-0.084-0.382-0.084-0.812v-6.64h0.592c0.38 0 0.634 0.048 0.803 0.096 0.255 0.145 0.467 0.338 0.63 0.567l0.004 0.006c0.169 0.239 0.296 0.621 0.423 1.146h0.211v-2.293h-7.268z"></path>
</svg>
<svg id="icon-fontsize" width="16" height="16" viewBox="0 0 16 16" x="0" y="588">
<path fill="#8a8a8a" d="M10.75 12.432l2.663 3.141 2.674-3.141z"></path>
<path fill="#8a8a8a" d="M2.979 7.234l1.53-4.933 1.534 4.933h-3.064zM5.888 0.408h-2.332l-3.489 11.051h1.617l0.825-2.63h4.042l0.839 2.63h2.025l-3.527-11.051z"></path>
<path fill="#8a8a8a" d="M9.553 8.899l0.888-2.357 0.888 2.357h-1.776zM11.238 5.444h-1.351l-1.085 2.927 0.47 1.475 0.007-0.021h2.342l0.487 1.522h1.171l-2.041-5.903z"></path>
</svg>
<svg id="icon-fontcolor" width="16" height="16" viewBox="0 0 16 16" x="0" y="609">
<path fill="#8a8a8a" d="M1.051 12.486v2.105h9.121l2.105-2.105h-11.226zM11.575 14.591h3.508v-3.508l-3.508 3.508z"></path>
<path fill="#8a8a8a" d="M12.338 12.135h-1.766l-1.437-3.369h-4.42l-1.423 3.369h-1.802l4.631-10.705h1.66l4.558 10.705zM8.565 7.275l-1.625-3.615-1.639 3.615h3.264z"></path>
</svg>
<svg id="icon-font-bgcolor" width="16" height="16" viewBox="0 0 16 16" x="0" y="630">
<path fill="#8a8a8a" d="M4.068 9.652c-0.151 0.146-0.226 0.351-0.226 0.614 0 0.231 0.082 0.42 0.246 0.566s0.38 0.219 0.649 0.219c0.374 0 0.683-0.132 0.926-0.395s0.364-0.594 0.364-0.991v-0.465l-1.136 0.154c-0.398 0.053-0.672 0.152-0.823 0.298zM12.953 1.452h-9.984c-1.103 0-1.997 0.894-1.997 1.997v8.985c0 1.103 0.894 1.997 1.997 1.997h9.984c1.103 0 1.997-0.894 1.997-1.997v-8.985c0-1.103-0.894-1.997-1.997-1.997zM6.879 11.635h-0.851v-0.75h-0.022c-0.336 0.576-0.832 0.864-1.487 0.864-0.471 0-0.845-0.127-1.123-0.382s-0.417-0.598-0.417-1.031c0-0.907 0.537-1.435 1.61-1.584l1.439-0.202c0-0.793-0.328-1.189-0.983-1.189-0.582 0-1.113 0.196-1.593 0.588v-0.829c0.483-0.301 1.040-0.452 1.672-0.452 1.17 0 1.755 0.614 1.755 1.843v3.124zM12.26 11.023c-0.402 0.484-0.938 0.726-1.608 0.726-0.632 0-1.113-0.266-1.443-0.799h-0.018v0.684h-0.86v-7.182h0.86v3.168h0.018c0.38-0.635 0.936-0.952 1.667-0.952 0.608 0 1.092 0.214 1.45 0.643s0.538 1.014 0.538 1.757c0 0.819-0.201 1.47-0.603 1.955zM10.638 7.38c-0.421 0-0.769 0.151-1.042 0.452s-0.41 0.684-0.41 1.15v0.658c0 0.392 0.127 0.723 0.382 0.994s0.573 0.406 0.956 0.406c0.456 0 0.813-0.175 1.071-0.526s0.386-0.836 0.386-1.457c0-0.512-0.12-0.919-0.36-1.222s-0.567-0.454-0.983-0.454z"></path>
</svg>
<svg id="icon-b" width="16" height="16" viewBox="0 0 16 16" x="0" y="651">
<path fill="#8a8a8a" d="M12.615 5.846c0-1.846-1.477-3.385-3.231-3.385h-5.077c-0.338 0-0.615 0.277-0.615 0.615v10.154c0 0.338 0.277 0.615 0.615 0.615h5.077c1.754 0 3.231-1.538 3.231-3.385 0-0.892-0.338-1.692-0.892-2.308 0.554-0.615 0.892-1.415 0.892-2.308zM9.385 11.692h-3.538v-2.462h3.538c0.585 0 1.108 0.585 1.108 1.231s-0.523 1.231-1.108 1.231zM9.385 7.077h-3.538v-2.462h3.538c0.585 0 1.108 0.585 1.108 1.231s-0.523 1.231-1.108 1.231z"></path>
</svg>
<svg id="icon-italic" width="16" height="16" viewBox="0 0 16 16" x="0" y="672">
<path fill="#8a8a8a" d="M11.692 3.785v-0.4c0-0.338-0.277-0.615-0.615-0.615h-4.308c-0.338 0-0.615 0.277-0.615 0.615v0.615c0 0.338 0.277 0.615 0.615 0.615 0.523 0 0.923 0.492 0.8 0.985l-1.108 5.415c-0.092 0.4-0.431 0.677-0.8 0.677h-0.738c-0.338 0-0.615 0.277-0.615 0.615v0.615c0 0.338 0.277 0.615 0.615 0.615h4.308c0.338 0 0.615-0.277 0.615-0.615v-0.615c0-0.338-0.277-0.615-0.615-0.615-0.523 0-0.923-0.492-0.8-0.985l1.108-5.415c0.092-0.4 0.431-0.677 0.8-0.677h0.523c0.462 0 0.831-0.369 0.831-0.831z"></path>
</svg>
<svg id="icon-underline" width="16" height="16" viewBox="0 0 16 16" x="0" y="693">
<path fill="#8a8a8a" d="M13.692 12.923h-11.385c-0.246 0-0.462 0.215-0.462 0.462v0.923c0 0.246 0.215 0.462 0.462 0.462h11.385c0.246 0 0.462-0.215 0.462-0.462v-0.923c0-0.246-0.215-0.462-0.462-0.462zM7.785 11.692c-2.308-0.123-4.092-2.123-4.092-4.431v-4.185c0-0.338 0.277-0.615 0.615-0.615h0.615c0.338 0 0.615 0.277 0.615 0.615v4.215c0 1.323 0.985 2.462 2.308 2.554 1.446 0.092 2.615-1.046 2.615-2.462v-4.308c0-0.338 0.277-0.615 0.615-0.615h0.615c0.338 0 0.615 0.277 0.615 0.615v4.308c0 2.462-2.062 4.431-4.523 4.308z"></path>
</svg>
<svg id="icon-strickout" width="16" height="16" viewBox="0 0 16 16" x="0" y="714">
<path fill="#8a8a8a" d="M3.723 5.569c-0.062-0.308-0.092-0.677-0.092-1.046 0-0.4 0.092-0.862 0.277-1.292 0.185-0.462 0.462-0.892 0.862-1.262 0.369-0.369 0.892-0.708 1.477-0.954 0.615-0.246 1.323-0.4 2.185-0.4 0.769 0 1.508 0.092 2.215 0.308 0.554 0.185 1.077 0.492 1.538 0.923 0.185 0.185 0.185 0.492-0.031 0.677l-0.831 0.769c-0.185 0.154-0.462 0.185-0.646 0-0.215-0.215-0.462-0.4-0.738-0.554-0.431-0.215-0.923-0.338-1.508-0.338-0.523 0-0.985 0.062-1.323 0.215s-0.646 0.308-0.862 0.554-0.369 0.462-0.462 0.708-0.123 0.492-0.123 0.677c0 0.338 0.062 0.615 0.154 0.862 0.092 0.215-0.062 0.431-0.277 0.431h-1.508c-0.154 0-0.277-0.154-0.308-0.277zM12.277 10.154h-1.538c-0.215 0-0.369 0.215-0.277 0.4s0.123 0.431 0.123 0.677c0 0.369-0.092 0.708-0.246 1.015-0.185 0.308-0.4 0.523-0.677 0.738-0.277 0.185-0.585 0.338-0.923 0.431s-0.646 0.154-0.985 0.154c-0.585 0-1.138-0.123-1.662-0.369-0.4-0.185-0.738-0.431-1.046-0.769-0.154-0.185-0.462-0.215-0.646-0.062l-0.862 0.738c-0.185 0.154-0.215 0.462-0.031 0.646 0.431 0.492 0.985 0.862 1.631 1.108 0.8 0.308 1.662 0.462 2.585 0.462 0.677 0 1.323-0.092 1.908-0.308 0.585-0.185 1.108-0.492 1.569-0.862 0.431-0.369 0.8-0.831 1.046-1.385s0.4-1.138 0.4-1.815c0-0.246 0-0.4-0.031-0.615-0.062-0.062-0.185-0.185-0.338-0.185zM15.354 7.354c-0.062-0.185-0.246-0.277-0.431-0.277h-13.846c-0.215 0-0.369 0.092-0.431 0.277-0.031 0.062-0.031 0.092-0.031 0.154v0.923c0 0.246 0.215 0.492 0.462 0.492h13.846c0.246 0 0.462-0.246 0.462-0.492v-0.923c0-0.062 0-0.092-0.031-0.154z"></path>
</svg>
<svg id="icon-line-height" width="16" height="16" viewBox="0 0 16 16" x="0" y="735">
<path fill="#8a8a8a" d="M2.499 11.902v-7.682c-0.166 0-0.326 0.009-0.485-0.002-0.265-0.019-0.339-0.2-0.178-0.467 0.254-0.423 0.52-0.837 0.79-1.245 0.145-0.219 0.377-0.212 0.522 0.009 0.262 0.398 0.521 0.801 0.767 1.214 0.055 0.093 0.087 0.254 0.063 0.359-0.016 0.067-0.153 0.115-0.239 0.126-0.153 0.020-0.308 0.006-0.469 0.006v7.672c0.15 0 0.298-0.017 0.444 0.006 0.097 0.015 0.246 0.062 0.266 0.138 0.027 0.104-0.021 0.274-0.080 0.375-0.236 0.397-0.486 0.781-0.737 1.164-0.17 0.26-0.396 0.258-0.566-0.005-0.25-0.384-0.492-0.775-0.737-1.163-0.022-0.035-0.044-0.075-0.061-0.118l-0.002-0.005c-0.088-0.217-0.034-0.357 0.161-0.375 0.176-0.016 0.353-0.003 0.543-0.003z"></path>
<path fill="#8a8a8a" d="M14.841 0v1.166h-13.69v-1.166zM14.849 14.834v1.166h-13.69v-1.166zM10.056 2.956l4.172 10.602h-1.321l-1.129-2.97h-4.871l-1.128 2.97h-1.307l4.173-10.602zM11.392 9.563l-2.004-5.3h-0.059l-2.034 5.3z"></path>
</svg>
<svg id="icon-clear-html" width="16" height="16" viewBox="0 0 16 16" x="0" y="756">
<path fill="#8a8a8a" d="M10.175 3.11c-0.106-0.106-0.279-0.106-0.385 0l-8.625 8.625c-0.106 0.106-0.106 0.279 0 0.385l1.678 1.678c0.106 0.106 0.315 0.192 0.464 0.192h5.374c0.15 0 0.358-0.087 0.464-0.192l5.666-5.666c0.106-0.106 0.106-0.279 0-0.385l-4.636-4.636zM8.612 12.774c-0.106 0.106-0.315 0.192-0.464 0.192h-4.161c-0.15 0-0.358-0.087-0.464-0.192l-0.791-0.791c-0.106-0.106-0.106-0.279 0-0.385l3.162-3.162c0.106-0.106 0.279-0.106 0.385 0l3.143 3.143c0.106 0.106 0.106 0.279 0 0.385l-0.81 0.81z"></path>
</svg>
<svg id="icon-image" width="16" height="16" viewBox="0 0 16 16" x="0" y="777">
<path fill="#8a8a8a" d="M15.385 3.077c0-0.677-0.554-1.231-1.231-1.231h-12.308c-0.677 0-1.231 0.554-1.231 1.231v9.846c0 0.677 0.554 1.231 1.231 1.231h12.308c0.677 0 1.231-0.554 1.231-1.231v-9.846zM12.185 11.692h-8.923c-0.369 0-0.585-0.4-0.4-0.708l2.708-4.708c0.123-0.215 0.4-0.215 0.523 0l1.631 2.8c0.123 0.185 0.4 0.215 0.523 0.031l1.323-1.908c0.123-0.185 0.4-0.185 0.523 0l2.431 3.877c0.185 0.277 0 0.615-0.338 0.615zM11.385 6.154c-0.677 0-1.231-0.554-1.231-1.231s0.554-1.231 1.231-1.231 1.231 0.554 1.231 1.231-0.554 1.231-1.231 1.231z"></path>
</svg>
<svg id="icon-multiple-image" width="16" height="16" viewBox="0 0 16 16" x="0" y="798">
<path fill="#8a8a8a" d="M13 1v12.033h-12v-12.033h12zM13 0h-12c-0.567 0-1 0.433-1 1v12.033c0 0.567 0.433 1 1 1h12.033c0.567 0 1-0.433 1-1v-12.033c-0.033-0.567-0.467-1-1.033-1z"></path>
<path fill="#8a8a8a" d="M13 12.267c0.567-0.6 0.8-2.3 0.8-3.1 0-2.033-1.6-3.7-3.633-3.7-1.433 0-2.633 0.8-3.233 1.967-0.667 1.033-1.8 1.7-3.1 1.7-1.367 0-2.533-0.733-3.2-1.833-0.333 0.567-0.5 1.2-0.5 1.867 0 0.733 0.2 2.333 0.567 2.9v1.133h1c0.6 0.3 1.333 0.667 2.133 0.667s1.533-0.4 2.133-0.667h2.1c0.6 0.3 1.333 0.667 2.133 0.667s1.533-0.4 2.133-0.667h0.7v-0.933z"></path>
<path fill="#8a8a8a" d="M2.767 4.233c0 0 0 0 0 0 0 0.7 0.567 1.267 1.267 1.267s1.267-0.567 1.267-1.267c0-0 0-0 0-0v0c0-0 0-0 0-0 0-0.7-0.567-1.267-1.267-1.267s-1.267 0.567-1.267 1.267c0 0 0 0 0 0v0z"></path>
<path fill="#8a8a8a" d="M15.633 16h-9c-0.267 0-0.5-0.233-0.5-0.5s0.233-0.5 0.5-0.5h8.5v-8.5c0-0.267 0.233-0.5 0.5-0.5s0.5 0.233 0.5 0.5v9c0 0.267-0.233 0.5-0.5 0.5z"></path>
</svg>
<svg id="icon-graft" width="17" height="16" viewBox="0 0 17 16" x="0" y="819">
<path fill="#8a8a8a" d="M16.407 3.584c0.106-0.333 0.388-1.214-0.194-1.628-0.171-0.118-0.382-0.188-0.61-0.188-0.013 0-0.026 0-0.039 0.001l0.002-0c-0.449 0-1.133 0.267-1.914 0.713-0.030-0.060-0.067-0.112-0.111-0.157l0 0c-1.435-1.432-3.417-2.318-5.605-2.318-4.379 0-7.93 3.548-7.935 7.926v0c-0 0.009-0 0.020-0 0.031 0 2.264 0.957 4.305 2.489 5.739l0.004 0.004c0.107 0.101 0.251 0.163 0.41 0.163 0.001 0 0.001 0 0.002 0h0.044c-0.291 0.29-0.604 0.557-0.938 0.8l-0.023 0.016c-0.155 0.11-0.255 0.289-0.255 0.491 0 0.279 0.19 0.513 0.448 0.581l0.004 0.001c0.631 0.152 1.356 0.239 2.102 0.239 0.004 0 0.008 0 0.011 0h-0.001c1.236 0 2.256-0.259 3.042-0.777v0.047c0 0.332 0.269 0.601 0.601 0.601v0c4.38-0.005 7.929-3.555 7.935-7.934v-0c0-0.008 0.001-0.018 0.001-0.028 0-0.332-0.269-0.601-0.601-0.601s-0.601 0.269-0.601 0.601c0 0.010 0 0.020 0.001 0.029l-0-0.001c-0.005 3.687-2.969 6.679-6.644 6.731l-0.005 0c0.617-0.614 0.933-1.306 0.906-1.993-0.017-0.336-0.114-0.646-0.272-0.916l0.005 0.009c0.166 0.056 0.358 0.088 0.557 0.088 0.004 0 0.007-0 0.011-0h-0.001c2.749-0.001 6.495-6.143 7.175-8.27zM4.521 13.81c0.268-0.47 1.21-1.992 2.168-1.992 0.209 0.006 0.402 0.071 0.563 0.18l-0.004-0.002c0.265 0.15 0.447 0.419 0.476 0.732l0 0.004c0.021 0.427-0.3 0.928-0.881 1.375s-1.457 0.695-2.549 0.695c-0.181 0-0.369-0.006-0.56-0.021 0.298-0.283 0.558-0.602 0.774-0.952l0.012-0.020zM8.754 9.025c1.072-2.589 5.206-5.632 6.574-6.016-0.129 0.493-0.567 1.583-1.553 3.158-1.643 2.599-3.549 4.486-4.55 4.486-0.003 0-0.007 0-0.010 0-0.167 0-0.317-0.071-0.422-0.185l-0-0c-0.299-0.299-0.312-0.786-0.039-1.443zM1.2 7.933c0-0.002 0-0.004 0-0.006 0-3.717 3.014-6.731 6.731-6.731 1.835 0 3.499 0.734 4.713 1.925l-0.001-0.001c-1.977 1.364-4.207 3.536-4.998 5.444-0.422 1.019-0.327 1.744-0.071 2.246-0.26-0.121-0.564-0.192-0.885-0.193h-0c-1.486 0-2.63 1.588-3.193 2.559-0.021-0.136-0.086-0.254-0.18-0.343l-0-0c-1.303-1.221-2.115-2.952-2.115-4.874 0-0.009 0-0.019 0-0.028v0.001z"></path>
<path fill="#8a8a8a" d="M8.931 4.704c0.858 0 1.553-0.695 1.553-1.553s-0.695-1.553-1.553-1.553c-0.858 0-1.553 0.695-1.553 1.553v0c0 0.858 0.695 1.553 1.553 1.553v0zM8.931 3.504c-0.194 0-0.352-0.158-0.352-0.352s0.158-0.352 0.352-0.352c0.194 0 0.352 0.158 0.352 0.352v0c0 0.194-0.158 0.352-0.352 0.352v0zM5.394 9.012c0-0.858-0.695-1.553-1.553-1.553s-1.553 0.695-1.553 1.553c0 0.858 0.695 1.553 1.553 1.553v0c0.858 0 1.553-0.695 1.553-1.553v0zM3.841 8.659c0.002-0 0.004-0 0.006-0 0.194 0 0.352 0.158 0.352 0.352s-0.158 0.352-0.352 0.352c-0.194 0-0.352-0.158-0.352-0.352v0c0-0 0-0 0-0 0-0.193 0.155-0.349 0.347-0.352h0zM4.977 7.069c1.144 0 2.071-0.927 2.071-2.071s-0.927-2.071-2.071-2.071c-1.144 0-2.071 0.927-2.071 2.071v0c0 1.144 0.927 2.071 2.071 2.071v0zM4.977 4.123c0.482 0 0.872 0.391 0.872 0.872s-0.391 0.872-0.872 0.872c-0.482 0-0.872-0.391-0.872-0.872v0c0.001-0.481 0.391-0.87 0.872-0.871h0z"></path>
</svg>
<svg id="icon-flash" width="16" height="16" viewBox="0 0 16 16" x="0" y="840">
<path fill="#8a8a8a" d="M8 0.889c-3.911 0-7.111 3.2-7.111 7.111s3.2 7.111 7.111 7.111 7.111-3.2 7.111-7.111-3.2-7.111-7.111-7.111zM11.556 5.956c-1.244-0.089-1.956 1.244-1.956 1.244l1.422 0.089v1.6h-2.044c-1.067 3.911-3.644 3.2-3.644 3.2v-1.333s1.511 0 2.311-2.756c1.156-4.356 3.911-3.467 3.911-3.467v1.422z"></path>
</svg>
<svg id="icon-vedio" width="16" height="16" viewBox="0 0 16 16" x="0" y="861">
<path fill="#8a8a8a" d="M15.385 0.615h-0.615v1.231h-1.846v-1.231h-9.846v1.231h-1.846v-1.231h-0.615c-0.339 0-0.615 0.276-0.615 0.615v13.538c0 0.339 0.276 0.615 0.615 0.615h0.615v-0.615h1.846v0.615h9.846v-0.615h1.846v0.615h0.615c0.339 0 0.615-0.276 0.615-0.615v-13.538c0-0.339-0.276-0.615-0.615-0.615zM3.077 12.923h-1.846v-1.846h1.846v1.846zM3.077 9.231h-1.846v-1.846h1.846v1.846zM3.077 5.538h-1.846v-1.846h1.846v1.846zM10.823 8.404l-4.002 2.334c-0.065 0.033-0.137 0.048-0.207 0.048-0.085 0-0.167-0.023-0.242-0.067-0.135-0.082-0.218-0.228-0.218-0.385v-4.668c0-0.157 0.082-0.303 0.218-0.385 0.137-0.082 0.307-0.090 0.449-0.018l4.002 2.334c0.156 0.077 0.254 0.233 0.254 0.404s-0.098 0.327-0.254 0.404zM14.769 12.923h-1.846v-1.846h1.846v1.846zM14.769 9.231h-1.846v-1.846h1.846v1.846zM14.769 5.538h-1.846v-1.846h1.846v1.846z"></path>
</svg>
<svg id="icon-attach" width="16" height="16" viewBox="0 0 16 16" x="0" y="882">
<path fill="#8a8a8a" d="M5.415 11.292c0.185 0.185 0.462 0.154 0.646 0l3.077-3.077c0.215-0.215 0.585-0.246 0.862 0s0.246 0.677 0 0.923l-3.785 3.723c-0.831 0.831-2.215 0.831-3.046 0l-0.031-0.031c-0.831-0.831-0.831-2.215 0-3.046l6.677-6.677c0.831-0.831 2.215-0.831 3.046 0l0.031 0.031c0.831 0.831 0.831 2.215 0 3.046l-0.031 0.031c-0.154 0.154-0.185 0.369-0.062 0.554 0.185 0.338 0.338 0.708 0.431 1.077 0.062 0.246 0.338 0.308 0.523 0.154 0.246-0.246 0.462-0.492 0.462-0.492 1.569-1.569 1.569-4.123 0-5.692h-0.062c-1.569-1.569-4.123-1.569-5.692 0l-6.677 6.646c-1.569 1.569-1.569 4.123 0 5.692l0.062 0.062c1.569 1.569 4.092 1.569 5.662 0l3.815-3.785c0.985-0.985 0.954-2.585-0.062-3.569-0.985-0.954-2.585-0.892-3.538 0.092l-3.015 3.015c-0.185 0.185-0.185 0.492 0 0.677l0.708 0.646z"></path>
</svg>
<svg id="icon-table" width="18" height="16" viewBox="0 0 18 16" x="0" y="903">
<path fill="#8a8a8a" d="M17.846 0h-17.231c-0.49 0-0.615 0.129-0.615 0.615v14.769c0 0.486 0.125 0.615 0.615 0.615h17.231c0.49 0 0.615-0.129 0.615-0.615v-14.769c0-0.486-0.125-0.615-0.615-0.615zM5.538 14.769l-4.328 0.051v-3.108l4.328-0.020v3.077zM5.538 10.462h-4.308v-3.077h4.308v3.077zM5.538 6.154h-4.308v-2.462h4.308v2.462zM11.692 14.769h-4.923v-3.077h4.923v3.077zM11.692 10.462h-4.923v-3.077h4.923v3.077zM11.692 6.154h-4.923v-2.462h4.923v2.462zM17.231 14.769h-4.308v-3.077h4.308v3.077zM17.231 10.462h-4.308v-3.077h4.308v3.077zM17.231 6.154h-4.308v-2.462h4.308v2.462z"></path>
</svg>
<svg id="icon-split" width="16" height="16" viewBox="0 0 16 16" x="0" y="924">
<path fill="#8a8a8a" d="M14.222 12.412l-1.811 1.811h-1.022l2.833-2.833v1.022zM14.222 13.742v0.48h-0.48l0.48-0.48zM14.222 10.059l-4.164 4.164h-1.022l4.444-4.444h0.741v0.281zM12.15 9.778l-4.444 4.444h-1.022l4.444-4.444h1.022zM9.796 9.778l-4.444 4.444h-1.022l4.444-4.444h1.022zM7.444 9.778l-4.444 4.444h-1.022l4.444-4.444h1.022zM5.091 9.778l-3.313 3.313v-1.012l2.3-2.3h1.013zM2.748 9.778l-0.97 0.97v-0.97h0.97zM14.222 3.078l-2.255 2.255h-1.022l3.277-3.277v1.022zM14.222 4.409v0.924h-0.924l0.924-0.924zM13.17 1.778l-3.556 3.556h-1.022l3.556-3.556h1.022zM10.817 1.778l-3.556 3.556h-1.022l3.556-3.556h1.022zM8.462 1.778l-3.556 3.556h-1.022l3.556-3.556h1.022zM6.11 1.778l-3.556 3.556h-0.777v-0.244l3.311-3.311h1.022zM3.757 1.778l-1.98 1.98v-1.012l0.967-0.967h1.013zM0 7.111h16v0.889h-16v-0.889z"></path>
</svg>
<svg id="icon-face" width="16" height="16" viewBox="0 0 16 16" x="0" y="945">
<path fill="#8a8a8a" d="M8 16c-4.417 0-8-3.58-8-7.993s3.583-8.007 8-8.007 8 3.594 8 8.007c0 4.413-3.583 7.993-8 7.993zM8 1c-3.865 0-7 3.145-7 7.006s3.135 6.994 7 6.994 7-3.132 7-6.994c0-3.861-3.135-7.006-7-7.006zM8 13c-2.419 0-4.436-1.718-4.899-4h1.041c0.446 1.722 1.997 3 3.859 3s3.412-1.278 3.858-3h1.041c-0.463 2.282-2.48 4-4.899 4zM11 6c-0.552 0-1-0.448-1-1s0.448-1 1-1 1 0.448 1 1c0 0.552-0.448 1-1 1zM5 6c-0.552 0-1-0.448-1-1s0.448-1 1-1 1 0.448 1 1c0 0.552-0.448 1-1 1z"></path>
</svg>
<svg id="icon-split-page" width="16" height="16" viewBox="0 0 16 16" x="0" y="966">
<path fill="#8a8a8a" d="M14.25 1v4h-12.5v-4h1.042v3h10.417v-3zM1.75 15v-4h12.5v4h-1.041v-3h-10.417v3zM1 7h14v2h-14z"></path>
</svg>
<svg id="icon-anchor" width="16" height="16" viewBox="0 0 16 16" x="0" y="987">
<path fill="#8a8a8a" d="M15.297 9.614l-1.117-1.117c-0.075-0.075-0.174-0.116-0.28-0.116-0.012 0-0.024 0.001-0.036 0.002-0.11-0.003-0.214 0.038-0.291 0.116l-1.143 1.143c-0.075 0.075-0.116 0.174-0.116 0.28s0.041 0.205 0.116 0.28c0.075 0.075 0.174 0.116 0.28 0.116s0.205-0.041 0.28-0.116l0.442-0.442c-0.107 1.281-0.667 2.486-1.579 3.399-0.925 0.925-2.149 1.487-3.45 1.583l-0-7.611 3.106-0c0.218 0 0.396-0.178 0.396-0.396s-0.178-0.396-0.396-0.396h-3.106v-4.407l2.781 2.781c0.075 0.075 0.174 0.116 0.28 0.116s0.205-0.041 0.28-0.116c0.075-0.075 0.116-0.174 0.116-0.28s-0.041-0.205-0.116-0.28l-3.434-3.434c-0.083-0.083-0.198-0.125-0.316-0.114-0.109-0.003-0.214 0.038-0.291 0.116l-3.434 3.434c-0.154 0.154-0.154 0.406 0 0.56 0.075 0.075 0.174 0.116 0.28 0.116s0.205-0.041 0.28-0.116l2.781-2.781v4.405h-3.106c-0.218 0-0.396 0.178-0.396 0.396s0.178 0.396 0.396 0.396l3.106-0v7.613c-1.311-0.091-2.546-0.653-3.478-1.585-0.92-0.92-1.481-2.137-1.582-3.43l0.444 0.444c0.075 0.075 0.174 0.116 0.28 0.116s0.205-0.041 0.28-0.116c0.075-0.075 0.116-0.174 0.116-0.28s-0.041-0.205-0.116-0.28l-1.117-1.117c-0.075-0.075-0.174-0.116-0.279-0.116-0.012 0-0.024 0.001-0.036 0.002-0.11-0.003-0.214 0.038-0.291 0.116l-1.143 1.143c-0.075 0.075-0.116 0.174-0.116 0.28s0.041 0.205 0.116 0.28 0.174 0.116 0.28 0.116c0.106 0 0.205-0.041 0.28-0.116l0.475-0.475c0.047 0.697 0.208 1.376 0.48 2.018 0.316 0.748 0.769 1.42 1.346 1.997s1.249 1.030 1.997 1.346c0.775 0.328 1.598 0.494 2.446 0.494s1.671-0.166 2.446-0.494c0.748-0.316 1.42-0.769 1.997-1.346s1.030-1.249 1.346-1.997c0.275-0.651 0.437-1.338 0.481-2.045l0.474 0.474c0.075 0.075 0.174 0.116 0.28 0.116s0.205-0.041 0.28-0.116 0.116-0.174 0.116-0.28c0-0.106-0.041-0.205-0.116-0.28z"></path>
</svg>
<svg id="icon-link" width="16" height="16" viewBox="0 0 16 16" x="0" y="1008">
<path fill="#8a8a8a" d="M8.369 12.831l-0.646-0.092s-0.431-0.092-0.646-0.185c-0.123-0.031-0.277 0-0.369 0.092l-0.154 0.154c-0.892 0.892-2.338 0.985-3.262 0.185-1.046-0.892-1.077-2.492-0.123-3.446l2.338-2.338c0.308-0.308 0.677-0.492 1.046-0.615 0.492-0.123 1.015-0.092 1.477 0.092 0.277 0.123 0.554 0.277 0.8 0.523 0.123 0.123 0.215 0.246 0.308 0.4 0.123 0.215 0.4 0.246 0.554 0.062l0.862-0.862c0.123-0.123 0.123-0.308 0.031-0.462-0.123-0.185-0.277-0.338-0.431-0.492-0.215-0.215-0.462-0.431-0.738-0.585-0.431-0.277-0.923-0.462-1.446-0.554-0.954-0.185-2-0.031-2.862 0.431-0.338 0.185-0.677 0.431-0.954 0.708l-2.246 2.246c-1.631 1.631-1.754 4.277-0.185 5.938 1.631 1.785 4.4 1.815 6.092 0.123l0.769-0.769c0.215-0.154 0.062-0.523-0.215-0.554zM14.031 1.785c-1.692-1.569-4.338-1.446-5.938 0.185l-0.708 0.677c-0.215 0.215-0.062 0.585 0.215 0.615 0.431 0.031 0.862 0.123 1.292 0.246 0.123 0.031 0.277 0 0.369-0.092l0.154-0.154c0.892-0.892 2.338-0.985 3.262-0.185 1.046 0.892 1.077 2.492 0.123 3.446l-2.338 2.338c-0.308 0.308-0.677 0.492-1.046 0.615-0.492 0.123-1.015 0.092-1.477-0.092-0.277-0.123-0.554-0.277-0.8-0.523-0.123-0.123-0.215-0.246-0.308-0.4-0.123-0.215-0.4-0.246-0.554-0.062l-0.862 0.862c-0.123 0.123-0.123 0.308-0.031 0.462 0.123 0.185 0.277 0.338 0.431 0.492 0.215 0.215 0.492 0.431 0.738 0.585 0.431 0.277 0.923 0.462 1.415 0.554 0.954 0.185 2 0.031 2.862-0.431 0.338-0.185 0.677-0.431 0.954-0.708l2.338-2.338c1.723-1.692 1.662-4.462-0.092-6.092z"></path>
</svg>
<svg id="icon-unlink" width="16" height="16" viewBox="0 0 16 16" x="0" y="1029">
<path fill="#8a8a8a" d="M7.385 11.262c-0.185 0-0.369-0.031-0.554-0.092-0.185-0.031-0.4-0.092-0.585-0.154-0.123-0.031-0.246 0-0.308 0.062l-0.123 0.123c-0.769 0.769-2.031 0.862-2.862 0.154-0.892-0.8-0.954-2.185-0.092-3.015l2.031-2.031c0.277-0.277 0.585-0.431 0.923-0.523 0.431-0.123 0.892-0.092 1.292 0.092 0.246 0.092 0.492 0.246 0.677 0.462 0.092 0.092 0.185 0.215 0.277 0.369 0.092 0.185 0.338 0.215 0.492 0.062l0.769-0.769c0.123-0.123 0.123-0.277 0.031-0.4-0.123-0.154-0.246-0.277-0.369-0.431-0.185-0.185-0.431-0.369-0.646-0.523-0.4-0.246-0.8-0.4-1.262-0.492-0.831-0.154-1.723-0.031-2.523 0.4-0.308 0.154-0.585 0.369-0.831 0.615l-1.969 1.969c-1.415 1.415-1.538 3.723-0.154 5.2 1.446 1.538 3.877 1.6 5.354 0.092l0.677-0.677c0.154-0.154 0.031-0.462-0.246-0.492zM12.462 6.923c1.477-1.477 1.446-3.908-0.092-5.354-1.477-1.354-3.785-1.262-5.2 0.154l-0.615 0.615c-0.185 0.185-0.062 0.492 0.185 0.523 0.369 0.031 0.769 0.092 1.138 0.215 0.123 0.031 0.246 0 0.308-0.062l0.123-0.123c0.769-0.769 2.031-0.862 2.862-0.154 0.892 0.8 0.954 2.185 0.092 3.015l-2.031 2.031c-0.277 0.277-0.585 0.431-0.923 0.523-0.431 0.123-0.892 0.092-1.292-0.092-0.246-0.092-0.492-0.246-0.677-0.462-0.092-0.092-0.185-0.215-0.246-0.338-0.092-0.185-0.338-0.215-0.492-0.062l-0.738 0.738c-0.123 0.123-0.123 0.277-0.031 0.4 0.123 0.154 0.215 0.277 0.369 0.431 0.215 0.215 0.431 0.369 0.646 0.523 0.4 0.246 0.8 0.4 1.262 0.492 0.831 0.154 1.723 0.031 2.523-0.4 0.308-0.154 0.585-0.369 0.831-0.615l2-2zM13.877 12.615l1.415-1.415c0.123-0.123 0.123-0.308 0-0.431l-0.862-0.862c-0.123-0.123-0.308-0.123-0.431 0l-1.385 1.446-1.323-1.323c-0.123-0.123-0.308-0.123-0.431 0l-0.862 0.862c-0.123 0.123-0.123 0.308 0 0.431l1.323 1.323-1.292 1.292c-0.123 0.123-0.123 0.308 0 0.431l0.862 0.862c0.123 0.123 0.308 0.123 0.431 0l1.292-1.292 1.385 1.385c0.123 0.123 0.308 0.123 0.431 0l0.862-0.862c0.123-0.123 0.123-0.308 0-0.431l-1.415-1.415z"></path>
</svg>
<svg id="icon-baidu-map" width="16" height="16" viewBox="0 0 16 16" x="0" y="1050">
<path fill="#8a8a8a" d="M9.473 10.846c0.725-0.156 0.626-1.022 0.605-1.211-0.035-0.292-0.379-0.802-0.845-0.762-0.587 0.053-0.672 0.9-0.672 0.9-0.080 0.392 0.189 1.229 0.913 1.073zM10.243 12.353c-0.021 0.061-0.069 0.217-0.027 0.352 0.081 0.305 0.345 0.318 0.345 0.318h0.379v-0.928h-0.407c-0.183 0.055-0.271 0.197-0.291 0.258zM10.819 9.393c0.401 0 0.724-0.461 0.724-1.031s-0.323-1.030-0.724-1.030c-0.399 0-0.724 0.461-0.724 1.030s0.324 1.031 0.724 1.031zM12.543 9.461c0.535 0.069 0.879-0.501 0.947-0.935 0.070-0.432-0.275-0.935-0.654-1.021-0.379-0.087-0.853 0.521-0.897 0.917-0.052 0.485 0.069 0.969 0.603 1.038zM13.854 12.006s-0.828-0.641-1.311-1.333c-0.655-1.021-1.586-0.605-1.897-0.086-0.31 0.519-0.793 0.847-0.861 0.935-0.069 0.085-1 0.588-0.793 1.505s0.932 0.899 0.932 0.899 0.535 0.053 1.155-0.086c0.621-0.137 1.155 0.035 1.155 0.035s1.449 0.485 1.846-0.449c0.396-0.935-0.224-1.42-0.224-1.42zM11.374 13.397h-0.942c-0.407-0.081-0.569-0.359-0.589-0.406s-0.135-0.271-0.075-0.651c0.176-0.569 0.677-0.61 0.677-0.61h0.501v-0.617l0.427 0.007v2.277zM13.129 13.39h-1.084c-0.42-0.108-0.44-0.407-0.44-0.407v-1.199l0.44-0.007v1.078c0.027 0.115 0.169 0.136 0.169 0.136h0.447v-1.206h0.468v1.605zM14.664 10.189c0-0.207-0.172-0.831-0.81-0.831s-0.725 0.589-0.725 1.005c0 0.397 0.033 0.951 0.827 0.933s0.707-0.899 0.707-1.107zM7.258 11.538c0.065 0.143 0.166 0.256 0.303 0.339s0.283 0.124 0.439 0.124 0.303-0.041 0.439-0.124c0.137-0.083 0.24-0.195 0.309-0.339l0.052-0.111c-0.201-0.083-0.385-0.213-0.533-0.393-0.345-0.423-0.433-0.979-0.368-1.358 0.062-0.522 0.394-1.388 1.275-1.467 0.032-0.003 0.069-0.005 0.106-0.005 0.001 0 0.002 0 0.003 0h-0c0.051 0 0.1 0.003 0.149 0.009 0.061-0.878 0.647-1.546 1.386-1.546 0.072 0 0.14 0.015 0.208 0.027l0.092-0.195c0.143-0.304 0.215-0.692 0.215-1.165 0-0.92-0.325-1.706-0.977-2.357s-1.437-0.977-2.357-0.977-1.706 0.325-2.357 0.977c-0.651 0.651-0.977 1.437-0.977 2.357 0 0.473 0.071 0.862 0.215 1.165l2.377 5.039zM6.821 4.155c0.325-0.325 0.718-0.488 1.179-0.488s0.853 0.163 1.179 0.488c0.325 0.325 0.488 0.718 0.488 1.178s-0.163 0.853-0.488 1.179c-0.325 0.325-0.719 0.488-1.179 0.488s-0.853-0.163-1.179-0.488c-0.325-0.325-0.488-0.718-0.488-1.179 0-0.459 0.163-0.852 0.488-1.178zM8.734 14h-7.401l2.667-4h1.795l0.315 0.667h-1.753l-1.778 2.667h5.811c0.083 0.274 0.202 0.494 0.344 0.667z"></path>
</svg>
<svg id="icon-google-map" width="16" height="16" viewBox="0 0 16 16" x="0" y="1071">
<path fill="#8a8a8a" d="M10.813 8.519c0 0.622 0.208 1.071 0.618 1.335 0.335 0.216 0.725 0.249 0.927 0.249 0.049 0 0.089-0.002 0.116-0.004 0 0-0.064 0.418 0.246 0.832h-0.014c-0.537 0-2.289 0.112-2.289 1.553 0 1.465 1.609 1.54 1.932 1.54 0.025 0 0.040-0.001 0.040-0.001 0.003 0 0.027 0.001 0.066 0.001 0.207 0 0.743-0.026 1.24-0.268 0.645-0.313 0.972-0.858 0.972-1.619 0-0.735-0.499-1.173-0.863-1.493-0.222-0.195-0.414-0.363-0.414-0.527 0-0.167 0.14-0.292 0.317-0.451 0.287-0.257 0.557-0.622 0.557-1.313 0-0.607-0.079-1.015-0.564-1.273 0.051-0.026 0.229-0.045 0.318-0.057 0.263-0.036 0.647-0.077 0.647-0.291v-0.041h-1.916c-0.019-0.001-1.937 0.071-1.937 1.827zM13.906 12.274c0.037 0.586-0.465 1.019-1.217 1.073-0.765 0.056-1.394-0.288-1.431-0.873-0.018-0.281 0.106-0.557 0.348-0.777 0.245-0.223 0.583-0.359 0.949-0.387 0.043-0.003 0.086-0.005 0.129-0.005 0.707 0 1.187 0.416 1.221 0.968zM13.405 8.118c0.188 0.661-0.096 1.353-0.548 1.48-0.048 0.014-0.103 0.022-0.16 0.022-0 0-0 0-0 0h0c-0.415 0-0.825-0.419-0.977-0.997-0.085-0.325-0.078-0.608 0.019-0.881 0.096-0.268 0.268-0.449 0.485-0.511 0.048-0.014 0.103-0.022 0.16-0.022 0 0 0 0 0 0h-0c0.501 0 0.823 0.207 1.021 0.908zM7.258 11.538c0.065 0.143 0.166 0.256 0.303 0.339s0.283 0.124 0.439 0.124 0.303-0.041 0.439-0.124c0.137-0.083 0.24-0.195 0.309-0.339l1.275-2.711c-0.009-0.099-0.017-0.199-0.017-0.308 0-1.052 0.509-1.742 1.153-2.151 0.109-0.284 0.174-0.621 0.174-1.034 0-0.92-0.325-1.706-0.977-2.357-0.651-0.652-1.437-0.977-2.357-0.977s-1.706 0.325-2.357 0.977c-0.651 0.651-0.977 1.437-0.977 2.357 0 0.473 0.071 0.862 0.215 1.165l2.377 5.039zM6.821 4.155c0.325-0.325 0.718-0.488 1.179-0.488s0.853 0.163 1.179 0.488c0.325 0.325 0.488 0.718 0.488 1.178s-0.163 0.853-0.488 1.179c-0.325 0.325-0.719 0.488-1.179 0.488s-0.853-0.163-1.179-0.488c-0.325-0.325-0.488-0.718-0.488-1.179 0-0.459 0.163-0.852 0.488-1.178zM9.895 10.667l0.313-0.667h0.225c0.137 0.189 0.299 0.35 0.483 0.48l0.006 0.004c-0.115 0.055-0.221 0.116-0.322 0.182h-0.705zM10.184 14h-8.851l2.667-4h1.795l0.315 0.667h-1.753l-1.778 2.667h7.195c0.099 0.255 0.235 0.479 0.411 0.667z"></path>
</svg>
<svg id="icon-about" width="16" height="16" viewBox="0 0 16 16" x="0" y="1092">
<path fill="#8a8a8a" d="M8.011 0.991c-3.868 0-7.003 3.135-7.003 7.003s3.135 7.003 7.003 7.003 7.003-3.136 7.003-7.003c0-3.868-3.135-7.003-7.003-7.003zM7.984 11.487c-0.399 0-0.723-0.333-0.723-0.743s0.324-0.743 0.723-0.743c0.399 0 0.723 0.333 0.723 0.743s-0.324 0.743-0.723 0.743zM10.003 6.816c-0.1 0.192-0.218 0.357-0.355 0.496s-0.384 0.374-0.739 0.704c-0.098 0.093-0.177 0.174-0.236 0.245s-0.103 0.134-0.132 0.193c-0.026 0.050-0.049 0.108-0.066 0.168l-0.002 0.007c-0.016 0.059-0.040 0.161-0.072 0.308-0.055 0.312-0.227 0.467-0.516 0.467-0.15 0-0.277-0.051-0.379-0.153s-0.154-0.253-0.154-0.454c0-0.251 0.037-0.47 0.113-0.654s0.175-0.347 0.299-0.486c0.124-0.139 0.292-0.305 0.503-0.497 0.185-0.168 0.319-0.294 0.401-0.38 0.080-0.083 0.149-0.176 0.205-0.279l0.003-0.007c0.056-0.105 0.085-0.219 0.085-0.341 0-0.24-0.086-0.442-0.258-0.607s-0.394-0.247-0.666-0.247c-0.318 0-0.552 0.083-0.702 0.25s-0.277 0.411-0.382 0.735c-0.098 0.339-0.285 0.508-0.559 0.508-0.162 0-0.298-0.059-0.41-0.178s-0.167-0.247-0.167-0.384c0-0.285 0.088-0.573 0.264-0.866s0.434-0.534 0.772-0.726c0.338-0.192 0.733-0.288 1.183-0.288 0.419 0 0.789 0.080 1.11 0.24s0.569 0.378 0.743 0.654c0.175 0.276 0.262 0.576 0.262 0.899 0 0.255-0.050 0.478-0.15 0.67z"></path>
</svg>
<svg id="icon-blockquote" width="16" height="16" viewBox="0 0 16 16" x="0" y="1113">
<path fill="#8a8a8a" d="M13.631 2c-2.769 0-4.892 2.154-4.892 4.923v6.615c0 0.246 0.215 0.462 0.462 0.462h5.231c0.246 0 0.462-0.215 0.462-0.462v-5.231c0-0.246-0.215-0.462-0.462-0.462h-3.846v-0.923c0-1.538 1.508-3.077 3.046-3.077h0.8c0.246 0 0.462-0.215 0.462-0.462v-0.923c0-0.246-0.215-0.462-0.462-0.462h-0.8zM6 2c-2.769 0-4.892 2.154-4.892 4.923v6.615c0 0.246 0.215 0.462 0.462 0.462h5.231c0.246 0 0.462-0.215 0.462-0.462v-5.231c0-0.246-0.215-0.462-0.462-0.462h-3.846v-0.923c0-1.538 1.508-3.077 3.046-3.077h0.8c0.246 0 0.462-0.215 0.462-0.462v-0.923c0-0.246-0.215-0.462-0.462-0.462h-0.8z"></path>
</svg>
<svg id="icon-table-attr" width="16" height="16" viewBox="0 0 16 16" x="0" y="1134">
<path fill="#8a8a8a" d="M15.204 1.055h-14.364c-0.41 0-0.743 0.333-0.743 0.743v12.383c0 0.41 0.333 0.743 0.743 0.743h14.364c0.41 0 0.743-0.333 0.743-0.743v-12.383c0-0.41-0.333-0.743-0.743-0.743l-0-0zM15.204 4.027v2.903h-4.293v-2.903h4.293zM5.875 10.563v-2.889h4.293v2.889h-4.293zM10.168 11.306v2.875h-4.293v-2.875h4.293zM5.132 10.563h-4.293v-2.889h4.293v2.889zM10.168 4.027v2.903h-4.293v-2.903h4.293zM10.911 7.674h4.293v2.889h-4.293v-2.889zM6.040 1.798c0.41 0 0.743 0.333 0.743 0.743s-0.333 0.743-0.743 0.743c-0.41 0-0.743-0.333-0.743-0.743s0.333-0.743 0.743-0.743v-0zM3.811 1.798c0.41 0 0.743 0.333 0.743 0.743s-0.333 0.743-0.743 0.743c-0.41 0-0.743-0.333-0.743-0.743s0.333-0.743 0.743-0.743v-0zM1.582 1.798c0.41 0 0.743 0.333 0.743 0.743s-0.333 0.743-0.743 0.743c-0.41 0-0.743-0.333-0.743-0.743s0.333-0.743 0.743-0.743v-0zM1.582 4.027h3.55v2.903h-4.293l0-2.903h0.743zM0.839 11.306h4.293v2.875h-4.293v-2.875zM10.911 14.181v-2.875h4.293v2.875h-4.293z"></path>
</svg>
<svg id="icon-insert-col" width="16" height="16" viewBox="0 0 16 16" x="0" y="1155">
<path fill="#8a8a8a" d="M14 0h-2s-1 0.448-1 1v10c0 0.552 0.448 1 1 1h2c0.552 0 1-0.448 1-1v-10c0-0.552-0.448-1-1-1zM14 11h-2v-3h2v3zM14 7h-2v-2h2v2zM14 4h-2v-3h2v3zM9 13l-2 3h5l-2-3h-1zM8 11v-10c0-0.552-0.448-1-1-1h-5s-1 0.448-1 1v10c0 0.552 0.448 1 1 1h5c0.552 0 1-0.448 1-1zM7 7h-2v-2h2v2zM7 1v3h-2v-3h2zM4 11h-2v-3h2v3zM4 7h-2v-2h2v2zM4 4h-2v-3h2v3zM5 8h2v3h-2v-3z"></path>
</svg>
<svg id="icon-insert-row" width="18" height="16" viewBox="0 0 18 16" x="0" y="1176">
<path fill="#8a8a8a" d="M17.143 16h-11.429c-0.631 0-1.143-0.512-1.143-1.143v-5.714s0.512-1.143 1.143-1.143h11.429c0.631 0 1.143 0.512 1.143 1.143v5.714s-0.512 1.143-1.143 1.143zM9.143 9.143h-3.429v2.286h3.429v-2.286zM9.143 12.571h-3.429v2.286h3.429v-2.286zM12.571 9.143h-2.286v2.286h2.286v-2.286zM12.571 12.571h-2.286v2.286h2.286v-2.286zM17.143 9.143h-3.429v2.286h3.429v-2.286zM13.714 12.571v2.286h3.429v-2.286h-3.429zM17.143 4.571h-11.429c-0.631 0-1.143-0.512-1.143-1.143v-2.286s0.512-1.143 1.143-1.143h11.429c0.631 0 1.143 0.512 1.143 1.143v2.286s-0.512 1.143-1.143 1.143zM9.143 1.143h-3.429v2.286h3.429v-2.286zM12.571 1.143h-2.286v2.286h2.286v-2.286zM17.143 1.143h-3.429v2.286h3.429v-2.286zM0 3.429l3.429 2.286v1.143l-3.429 2.286v-5.714z"></path>
</svg>
<svg id="icon-merge-table" width="21" height="16" viewBox="0 0 21 16" x="0" y="1197">
<path fill="#8a8a8a" d="M1.484 2.296c0-0.615 0.242-1.198 0.682-1.63 0.43-0.432 1.005-0.666 1.62-0.666h0.016l10.845 0.059c0.615 0 1.198 0.242 1.63 0.682s0.666 1.021 0.666 1.637l-0.059 10.845c0 0.615-0.242 1.198-0.682 1.63-0.432 0.432-1.007 0.666-1.622 0.666h-0.016l-10.845-0.059c-0.615 0-1.198-0.242-1.63-0.682s-0.666-1.023-0.666-1.639l0.061-10.843zM6.199 1.048l-2.412-0.016c-0.333 0-0.65 0.134-0.897 0.374-0.242 0.242-0.374 0.556-0.374 0.897l-0.016 2.461h3.7v-3.716zM10.98 1.072l-3.742-0.024v3.718h3.742v-3.693zM12.020 14.463l2.552 0.016c0.341 0 0.658-0.124 0.897-0.365 0.242-0.242 0.374-0.556 0.374-0.897l0.016-2.579h-3.842v3.825zM12.020 9.598h3.844l0.016-3.793h-3.868v3.793h0.008zM12.020 4.765h3.868l0.016-2.396c0-0.333-0.124-0.658-0.365-0.897-0.242-0.242-0.556-0.374-0.897-0.374l-2.619-0.016v3.683z"></path>
<path fill="#8a8a8a" d="M5.005 1.478c0.008 0 0.008 0.008 0 0z"></path>
</svg>
<svg id="icon-merge-td" width="16" height="16" viewBox="0 0 16 16" x="0" y="1218">
<path fill="#8a8a8a" d="M11.371 9.493h2.837v-2.987h-12.416v2.987h9.579zM0 0h16v16h-16v-16zM14.208 4.779v-2.987h-5.333v2.987h5.333zM14.208 14.208v-2.987h-5.333v2.987h5.333zM7.125 4.779v-2.987h-5.333v2.987h5.333zM7.125 14.208v-2.987h-5.333v2.987h5.333z"></path>
</svg>
<svg id="icon-remove-col" width="16" height="16" viewBox="0 0 16 16" x="0" y="1239">
<path fill="#8a8a8a" d="M16 16h-2l-2-2.334-2 2.334h-2l3-3.5-3-3.5h2l2 2.333 2-2.333h2l-3 3.5 3 3.5zM7 12h1v1h-1s-1-0.448-1-1v-11c0-0.552 0.448-1 1-1h5c0.552 0 1 0.448 1 1v7h-1v-3h-2v3h-1v-3h-2v3h1v1h-1v3zM10 4h2v-3h-2v3zM9 4v-3h-2v3h2zM1 13s-1-0.448-1-1v-11c0-0.552 0.448-1 1-1h2c0.552 0 1 0.448 1 1v12h-3zM3 1h-2v3h2v-3zM3 5h-2v3h2v-3zM3 9h-2v3h2v-3z"></path>
</svg>
<svg id="icon-remove-row" width="16" height="16" viewBox="0 0 16 16" x="0" y="1260">
<path fill="#8a8a8a" d="M16 16h-2l-2-2.334-2 2.334h-2l3-3.5-3-3.5h2l2 2.333 2-2.333h2l-3 3.5 3 3.5zM9 8h-4v2h1.667l0.333 1h-2v2h2.667l0.333 1h-7c-0.552 0-1-0.448-1-1v-5s0.448-1 1-1h12v1h-4zM4 8h-3v2h3v-2zM4 11h-3v2h3v-2zM1 4c-0.552 0-1-0.448-1-1v-2s0.448-1 1-1h11c0.552 0 1 0.448 1 1v3h-12zM4 1h-3v2h3v-2zM8 1h-3v2h3v-2zM12 1h-3v2h3v-2z"></path>
</svg>
<svg id="icon-remove-table" width="18" height="16" viewBox="0 0 18 16" x="0" y="1281">
<path fill="#8a8a8a" d="M14.857 16v-3.429l3.429-2.286v3.429l-3.429 2.286zM8 11.429l4.571-3.429h5.714l-4.571 3.429h-5.714zM13.714 4.571h-3.429v3.429h-4.571v2.286h1.143v1.143h-5.714c-0.631 0-1.143-0.512-1.143-1.143v-9.143c0-0.631 0.512-1.143 1.143-1.143h12.571c0.631 0 1.143 0.512 1.143 1.143v5.714h-1.143v-2.286zM4.571 1.143h-3.429v2.286h3.429v-2.286zM4.571 4.571h-3.429v2.286h3.429v-2.286zM4.571 8h-3.429v2.286h3.429v-2.286zM9.143 1.143h-3.429v2.286h3.429v-2.286zM9.143 4.571h-3.429v2.286h3.429v-2.286zM13.714 1.143h-3.429v2.286h3.429v-2.286zM13.714 16h-5.714v-3.429h5.714v3.429z"></path>
</svg>
<svg id="icon-insert-col2" width="16" height="16" viewBox="0 0 16 16" x="0" y="1302">
<path fill="#8a8a8a" d="M2 16h2s1-0.448 1-1v-10c0-0.552-0.448-1-1-1h-2c-0.552 0-1 0.448-1 1v10c0 0.552 0.448 1 1 1zM2 5h2v3h-2v-3zM2 9h2v2h-2v-2zM2 12h2v3h-2v-3zM7 3l2-3h-5l2 3h1zM8 5v10c0 0.552 0.448 1 1 1h5s1-0.448 1-1v-10c0-0.552-0.448-1-1-1h-5c-0.552 0-1 0.448-1 1zM9 9h2v2h-2v-2zM9 15v-3h2v3h-2zM12 5h2v3h-2v-3zM12 9h2v2h-2v-2zM12 12h2v3h-2v-3zM11 8h-2v-3h2v3z"></path>
</svg>
<svg id="icon-insert-row2" width="18" height="16" viewBox="0 0 18 16" x="0" y="1323">
<path fill="#8a8a8a" d="M1.154 0h11.429c0.631 0 1.143 0.512 1.143 1.143v5.714s-0.512 1.143-1.143 1.143h-11.429c-0.631 0-1.143-0.512-1.143-1.143v-5.714s0.512-1.143 1.143-1.143zM9.154 6.857h3.429v-2.286h-3.429v2.286zM9.154 3.429h3.429v-2.286h-3.429v2.286zM5.725 6.857h2.286v-2.286h-2.286v2.286zM5.725 3.429h2.286v-2.286h-2.286v2.286zM1.154 6.857h3.429v-2.286h-3.429v2.286zM4.583 3.429v-2.286h-3.429v2.286h3.429zM1.154 11.429h11.429c0.631 0 1.143 0.512 1.143 1.143v2.286s-0.512 1.143-1.143 1.143h-11.429c-0.631 0-1.143-0.512-1.143-1.143v-2.286s0.512-1.143 1.143-1.143zM9.154 14.857h3.429v-2.286h-3.429v2.286zM5.725 14.857h2.286v-2.286h-2.286v2.286zM1.154 14.857h3.429v-2.286h-3.429v2.286zM18.297 12.571l-3.429-2.286v-1.143l3.429-2.286v5.714z"></path>
</svg>
<svg id="icon-split-table" width="16" height="16" viewBox="0 0 16 16" x="0" y="1344">
<path fill="#8a8a8a" d="M0 0h16v16h-16v-16zM14.208 4.779v-2.987h-5.333v2.987h5.333zM14.208 14.208v-2.987h-5.333v2.987h5.333zM7.125 4.779v-2.987h-5.333v2.987h5.333zM7.125 14.208v-2.987h-5.333v2.987h5.333zM10.667 9.493v-2.987h-1.792v2.987h1.792zM14.208 9.493v-2.987h-1.792v2.987h1.792zM3.584 9.493v-2.987h-1.792v2.987h1.792zM7.125 9.493v-2.987h-1.792v2.987h1.792z"></path>
</svg>
<svg id="icon-merge-table2" width="21" height="16" viewBox="0 0 21 16" x="0" y="1365">
<path fill="#8a8a8a" d="M19.297 2.296c0-0.615-0.242-1.198-0.682-1.63-0.43-0.432-1.005-0.666-1.62-0.666h-0.016l-10.845 0.059c-0.615 0-1.198 0.242-1.63 0.682s-0.666 1.021-0.666 1.637l0.059 10.845c0 0.615 0.242 1.198 0.682 1.63 0.432 0.432 1.007 0.666 1.622 0.666h0.016l10.845-0.059c0.615 0 1.198-0.242 1.63-0.682s0.666-1.023 0.666-1.639l-0.061-10.843zM14.583 1.048l2.412-0.016c0.333 0 0.65 0.134 0.897 0.374 0.242 0.242 0.374 0.556 0.374 0.897l0.016 2.461h-3.7v-3.716zM9.801 1.072l3.742-0.024v3.718h-3.742v-3.693zM8.761 14.463l-2.552 0.016c-0.341 0-0.658-0.124-0.897-0.365-0.242-0.242-0.374-0.556-0.374-0.897l-0.016-2.579h3.842v3.825zM8.761 9.598h-3.844l-0.016-3.793h3.868v3.793h-0.008zM8.761 4.765h-3.868l-0.016-2.396c0-0.333 0.124-0.658 0.365-0.897 0.242-0.242 0.556-0.374 0.897-0.374l2.619-0.016v3.683z"></path>
<path fill="#8a8a8a" d="M15.777 1.478c-0.008 0-0.008 0.008 0 0z"></path>
</svg>
<svg id="icon-remove2" width="16" height="16" viewBox="0 0 16 16" x="0" y="1386">
<path fill="#8a8a8a" d="M6.214 13.804c0.401 0 0.727-0.325 0.727-0.726v-8.711c0-0.401-0.325-0.727-0.727-0.727s-0.727 0.325-0.727 0.727v0 8.711c0 0.401 0.325 0.726 0.727 0.726zM15.299 1.464h-6.178v-0.726c0-0.401-0.325-0.726-0.727-0.726h-0.727c-0.401 0-0.727 0.325-0.727 0.726v0.726h-6.177c-0.008-0-0.017-0-0.026-0-0.401 0-0.726 0.325-0.726 0.726s0.325 0.726 0.726 0.726c0.009 0 0.018-0 0.027-0.001l-0.001 0h1.090v11.615c0.001 0.802 0.651 1.452 1.453 1.452 0 0 0.001 0 0.001 0h9.448c0 0 0.001 0 0.001 0 0.802 0 1.452-0.65 1.453-1.452v-11.615h1.090c0.008 0 0.017 0 0.026 0 0.401 0 0.726-0.325 0.726-0.726s-0.325-0.726-0.726-0.726c-0.009 0-0.018 0-0.027 0l0.001-0zM12.755 13.804c0 0.401-0.325 0.726-0.727 0.726h-7.994c-0.401 0-0.727-0.325-0.727-0.726v-10.889h9.448v10.889zM9.847 13.804c0.402 0 0.727-0.325 0.727-0.726v-8.711c0-0.401-0.325-0.727-0.727-0.727s-0.727 0.325-0.727 0.727v0 8.711c0 0.401 0.325 0.726 0.727 0.726z"></path>
</svg>
<svg id="icon-ok" width="16" height="16" viewBox="0 0 16 16" x="0" y="1407">
<path fill="#8a8a8a" d="M8 16c-4.418 0-8-3.582-8-8s3.582-8 8-8c4.418 0 8 3.582 8 8s-3.582 8-8 8zM12.177 4.986l-4.894 4.894-3.364-3.365-0.918 0.918 4.282 4.283 5.811-5.812-0.917-0.918z"></path>
</svg>
<svg id="icon-remove" width="16" height="16" viewBox="0 0 16 16" x="0" y="1428">
<path fill="#8a8a8a" d="M8 1c-3.867 0-7 3.133-7 7s3.133 7 7 7 7-3.133 7-7c0-3.867-3.133-7-7-7zM11.167 10.7c0.133 0.133 0.133 0.333 0 0.467s-0.333 0.133-0.467 0l-2.7-2.7-2.7 2.7c-0.133 0.133-0.333 0.133-0.467 0s-0.133-0.333 0-0.467l2.7-2.7-2.7-2.7c-0.133-0.133-0.133-0.333 0-0.467s0.333-0.133 0.467 0l2.7 2.7 2.7-2.7c0.133-0.133 0.333-0.133 0.467 0s0.133 0.333 0 0.467l-2.7 2.7 2.7 2.7z"></path>
</svg>
<svg id="icon-graft2" width="18" height="16" viewBox="0 0 18 16" x="0" y="1449">
<path fill="#8a8a8a" d="M11.658 0.504c0.216-0.218 0.516-0.354 0.848-0.354s0.631 0.135 0.847 0.354l1.664 1.664c0.217 0.217 0.351 0.517 0.351 0.848s-0.134 0.631-0.351 0.848l-9.336 9.336c-0.468 0.468-1.365 0.954-2.024 1.089l-3.048 0.625 0.625-3.048c0.133-0.65 0.62-1.557 1.088-2.025l9.336-9.336zM9.96 2.202l-0.848 0.849 3.358 3.359 0.849-0.849-3.359-3.359zM12.184 12.804c0.905-0.457 1.054-0.865 0.639-1.526-0.338-0.537-1.675-0.285-1.797 0.805-0.044 0.398 0.117 0.753 0.421 1.026 0.28-0.096 0.525-0.197 0.737-0.305zM13.063 13.682c-0.092 0.059-0.206 0.124-0.322 0.183l-0.025 0.012c-0.396 0.201-0.877 0.38-1.442 0.54-1.27 0.36-2.968 0.617-5.104 0.781-0.013 0.001-0.028 0.002-0.043 0.002-0.314 0-0.572-0.243-0.594-0.552l-0-0.002c-0.001-0.014-0.002-0.031-0.002-0.048 0-0.313 0.24-0.57 0.547-0.596l0.002-0c1.652-0.127 3.021-0.311 4.101-0.548 0.479-0.104 0.901-0.22 1.266-0.345 0.367 0.331 0.943 0.544 1.616 0.573 0.981 0.043 2.17-0.303 3.22-1.242 0.104-0.093 0.242-0.15 0.393-0.15 0.177 0 0.336 0.078 0.444 0.202l0.001 0.001c0.093 0.106 0.149 0.245 0.149 0.398 0 0.178-0.077 0.338-0.2 0.449l-0.001 0c-1.888 1.687-4.29 1.855-5.796 1.079-0.462-0.238-0.84-0.565-1.093-0.964-0.221-0.346-0.353-0.767-0.353-1.219 0-0.101 0.007-0.2 0.019-0.297l-0.001 0.011c0.25-2.25 3.058-2.78 3.979-1.315 0.752 1.197 0.45 2.291-0.762 3.048z"></path>
</svg>
<svg id="icon-func" width="17" height="16" viewBox="0 0 17 16" x="0" y="1470">
<path fill="#8a8a8a" d="M0.531 15.51v-2.065h4.213c-1.236-0.919-2.162-1.924-2.78-3.018-0.582-1.007-0.926-2.215-0.926-3.503 0-0.014 0-0.029 0-0.043l-0 0.002c0-1.992 0.695-3.612 2.086-4.861 1.39-1.25 3.193-1.874 5.406-1.874 2.215 0 4.017 0.625 5.408 1.874s2.086 2.869 2.086 4.86c0 1.263-0.309 2.441-0.927 3.535s-1.544 2.103-2.78 3.028h4.213v2.065h-6.854v-2.065c1.012-0.756 1.772-1.663 2.278-2.72 0.506-1.056 0.76-2.263 0.76-3.62 0-1.519-0.373-2.715-1.12-3.59-0.745-0.874-1.767-1.31-3.063-1.31s-2.317 0.438-3.063 1.316c-0.746 0.877-1.119 2.076-1.119 3.595 0 1.356 0.253 2.562 0.76 3.615s1.265 1.958 2.278 2.714v2.065h-6.857z"></path>
</svg>
<svg id="icon-find" width="16" height="16" viewBox="0 0 16 16" x="0" y="1491">
<path fill="#8a8a8a" d="M1 0h6v1h-6zM9 0h6v1h-6zM14.875 5h-0.875v-4h-4v4h-4v-4h-4v4h-0.875c-0.619 0-1.125 0.506-1.125 1.125v8.75c0 0.619 0.506 1.125 1.125 1.125h4.75c0.619 0 1.125-0.506 1.125-1.125v-5.875h2v5.875c0 0.619 0.506 1.125 1.125 1.125h4.75c0.619 0 1.125-0.506 1.125-1.125v-8.75c0-0.619-0.506-1.125-1.125-1.125zM5.438 15h-3.875c-0.309 0-0.563-0.225-0.563-0.5s0.253-0.5 0.563-0.5h3.875c0.309 0 0.563 0.225 0.563 0.5s-0.253 0.5-0.563 0.5zM8.5 8h-1c-0.275 0-0.5-0.225-0.5-0.5s0.225-0.5 0.5-0.5h1c0.275 0 0.5 0.225 0.5 0.5s-0.225 0.5-0.5 0.5zM14.438 15h-3.875c-0.309 0-0.563-0.225-0.563-0.5s0.253-0.5 0.563-0.5h3.875c0.309 0 0.563 0.225 0.563 0.5s-0.253 0.5-0.563 0.5z"></path>
</svg>
<svg id="icon-date" width="16" height="16" viewBox="0 0 16 16" x="0" y="1512">
<path fill="#8a8a8a" d="M13.597 2.081h-0.584v2.837c0 0.603-0.489 1.093-1.093 1.093s-1.092-0.49-1.092-1.093v-2.837h-5.64v2.83c0 0.604-0.49 1.094-1.094 1.094-0.603 0-1.092-0.49-1.092-1.094v-2.83h-0.6c-0.775 0-1.402 0.628-1.402 1.402v3.070h14v-3.070c0-0.774-0.627-1.402-1.403-1.402zM4.927 4.612c0 0.463-0.376 0.837-0.837 0.837v0c-0.463 0-0.837-0.374-0.837-0.837v-2.76c0-0.463 0.375-0.837 0.837-0.837v0c0.461 0 0.837 0.374 0.837 0.837v2.76zM12.78 4.612c0 0.463-0.374 0.837-0.838 0.837v0c-0.463 0-0.837-0.374-0.837-0.837v-2.76c0-0.463 0.374-0.837 0.837-0.837v0c0.464 0 0.838 0.374 0.838 0.837v2.76zM14.182 7.133v5.608c0 0.774-0.627 1.401-1.401 1.401h-9.573c-0.774 0-1.401-0.627-1.401-1.401v-5.608h-0.807v6.45c0 0.774 0.627 1.403 1.403 1.403h11.193c0.776 0 1.403-0.629 1.403-1.403v-6.45h-0.817zM8.393 11.198h1.101c0.109 0.504 0.389 0.649 0.662 0.649 0.405 0 0.651-0.262 0.651-0.723 0-0.26-0.097-0.626-0.651-0.64h-0.351v-0.69h0.159c0.554-0.014 0.687-0.241 0.687-0.66 0-0.271-0.201-0.468-0.526-0.477-0.426-0.011-0.491 0.185-0.598 0.443l-1.031 0.002c0.239-0.793 0.793-1.196 1.661-1.21 1.052 0.028 1.597 0.453 1.635 1.274 0 0.403-0.232 0.708-0.692 0.909 0.589 0.202 0.885 0.563 0.885 1.080-0.037 0.865-0.646 1.319-1.827 1.362-0.998 0.001-1.599-0.483-1.765-1.319zM7.633 11.479v0.975h-3.543v-0.629c0.386-0.605 0.771-1.059 1.492-1.52 0.663-0.433 0.894-0.763 0.894-1.080 0-0.070 0.003-0.433-0.531-0.433-0.372 0.014-0.645 0.182-0.645 0.565l-1.128 0.007c0.065-1.087 0.95-1.473 1.856-1.473 1.032 0.043 1.586 0.482 1.66 1.317 0.037 0.563-0.28 1.101-1.148 1.634-0.48 0.287-0.523 0.319-0.817 0.636h1.91z"></path>
</svg>
<svg id="icon-clock" width="16" height="16" viewBox="0 0 16 16" x="0" y="1533">
<path fill="#8a8a8a" d="M11.331 7.805h-2.732v-2.199c0-0.333-0.267-0.6-0.6-0.6s-0.6 0.267-0.6 0.6v2.932c0.067 0.267 0.267 0.466 0.533 0.466h3.398c0.333 0 0.6-0.267 0.6-0.6s-0.267-0.6-0.6-0.6zM13.53 3.074c-1.399-1.399-3.331-2.199-5.53-2.199-2.132 0-4.131 0.866-5.53 2.199-1.399 1.399-2.265 3.265-2.265 5.33s0.866 3.998 2.265 5.33c1.399 1.399 3.331 2.199 5.53 2.199 2.132 0 4.131-0.866 5.53-2.199 1.399-1.399 2.265-3.265 2.265-5.33s-0.866-3.998-2.265-5.33zM12.664 12.935c-1.199 1.133-2.865 1.866-4.664 1.866s-3.465-0.733-4.664-1.866c-1.199-1.133-1.932-2.732-1.932-4.531s0.733-3.398 1.932-4.531c1.199-1.133 2.865-1.866 4.664-1.866s3.465 0.733 4.664 1.866c1.199 1.133 1.932 2.798 1.932 4.531 0 1.799-0.733 3.398-1.932 4.531zM1.271 2.874l2.332-1.866c0.267-0.2 0.267-0.6 0.067-0.8-0.2-0.267-0.6-0.267-0.866-0.067l-2.332 1.866c-0.267 0.2-0.333 0.6-0.067 0.8 0.2 0.267 0.6 0.267 0.866 0.067zM14.729 2.874c0.267 0.2 0.666 0.133 0.866-0.067 0.2-0.267 0.133-0.6-0.067-0.8l-2.332-1.866c-0.267-0.2-0.666-0.133-0.866 0.067-0.2 0.267-0.2 0.6 0.067 0.8l2.332 1.866z"></path>
</svg>
</svg>
